<svg width="212" height="202" viewBox="0 0 212 202" fill="none" xmlns="http://www.w3.org/2000/svg">
<g filter="url(#filter0_d_7_168)">
<rect x="55.3627" y="3" width="150" height="132.508" rx="15" transform="rotate(21.18 55.3627 3)" fill="white"/>
</g>
<path d="M102.246 49.5967L104.715 56.0565C106.429 55.2884 107.958 54.2587 109.277 53.0328C107.243 51.3302 104.825 50.1526 102.246 49.5967Z" fill="#0158DB"/>
<path d="M102.246 49.5967L104.715 56.0565C106.429 55.2884 107.958 54.2587 109.277 53.0328C107.243 51.3302 104.825 50.1526 102.246 49.5967Z" fill="url(#paint0_linear_7_168)"/>
<path d="M105.838 62.4415L104.014 57.6697C102.089 58.374 100.098 58.7376 98.1112 58.7559C97.9813 60.8975 98.2548 63.0892 98.9796 65.2171L105.838 62.4415Z" fill="#0158DB"/>
<path d="M105.838 62.4415L104.014 57.6697C102.089 58.374 100.098 58.7376 98.1112 58.7559C97.9813 60.8975 98.2548 63.0892 98.9796 65.2171L105.838 62.4415Z" fill="url(#paint1_linear_7_168)"/>
<path d="M105.156 57.2079L106.98 61.9797L113.838 59.2024C112.959 57.133 111.706 55.3338 110.19 53.8579C108.741 55.2218 107.053 56.3625 105.156 57.2079Z" fill="#0158DB"/>
<path d="M105.156 57.2079L106.98 61.9797L113.838 59.2024C112.959 57.133 111.706 55.3338 110.19 53.8579C108.741 55.2218 107.053 56.3625 105.156 57.2079Z" fill="url(#paint2_linear_7_168)"/>
<path d="M114.277 60.3531L107.419 63.1304L109.045 67.3823C111.067 66.6438 113.136 66.2964 115.17 66.3061C115.231 64.3264 114.945 62.3126 114.277 60.3531Z" fill="#0158DB"/>
<path d="M114.277 60.3531L107.419 63.1304L109.045 67.3823C111.067 66.6438 113.136 66.2964 115.17 66.3061C115.231 64.3264 114.945 62.3126 114.277 60.3531Z" fill="url(#paint3_linear_7_168)"/>
<path d="M115.086 67.5471C113.227 67.5448 111.335 67.8647 109.485 68.5355L112.152 75.5151C113.769 73.1535 114.788 70.4077 115.086 67.5471Z" fill="#0158DB"/>
<path d="M115.086 67.5471C113.227 67.5448 111.335 67.8647 109.485 68.5355L112.152 75.5151C113.769 73.1535 114.788 70.4077 115.086 67.5471Z" fill="url(#paint4_linear_7_168)"/>
<path d="M101.839 72.2373C100.369 70.7148 99.1506 68.9012 98.2789 66.8327L93.4846 68.7734C94.7562 71.7228 96.899 74.0271 99.4911 75.4967C100.158 74.3174 100.947 73.227 101.839 72.2373Z" fill="#0158DB"/>
<path d="M101.839 72.2373C100.369 70.7148 99.1506 68.9012 98.2789 66.8327L93.4846 68.7734C94.7562 71.7228 96.899 74.0271 99.4911 75.4967C100.158 74.3174 100.947 73.227 101.839 72.2373Z" fill="url(#paint5_linear_7_168)"/>
<path d="M115.418 59.8906C115.418 59.8906 115.417 59.8923 115.418 59.8906C116.151 62.0176 116.46 64.2048 116.39 66.3537C117.712 66.4529 119.011 66.7035 120.264 67.0927C121.189 64.1965 121.235 61.0035 120.212 57.9499L115.418 59.8906Z" fill="#0158DB"/>
<path d="M115.418 59.8906C115.418 59.8906 115.417 59.8923 115.418 59.8906C116.151 62.0176 116.46 64.2048 116.39 66.3537C117.712 66.4529 119.011 66.7035 120.264 67.0927C121.189 64.1965 121.235 61.0035 120.212 57.9499L115.418 59.8906Z" fill="url(#paint6_linear_7_168)"/>
<path d="M106.278 63.5929L99.4196 66.3702C100.226 68.2712 101.348 69.9431 102.7 71.3454C104.204 69.8946 105.957 68.7088 107.901 67.8435L106.278 63.5929Z" fill="#0158DB"/>
<path d="M106.278 63.5929L99.4196 66.3702C100.226 68.2712 101.348 69.9431 102.7 71.3454C104.204 69.8946 105.957 68.7088 107.901 67.8435L106.278 63.5929Z" fill="url(#paint7_linear_7_168)"/>
<path d="M98.2328 57.5135C100.031 57.4844 101.833 57.1518 103.575 56.519L101.105 50.0592C99.5858 52.276 98.5933 54.8375 98.2328 57.5135Z" fill="#0158DB"/>
<path d="M98.2328 57.5135C100.031 57.4844 101.833 57.1518 103.575 56.519L101.105 50.0592C99.5858 52.276 98.5933 54.8375 98.2328 57.5135Z" fill="url(#paint8_linear_7_168)"/>
<path d="M93.5934 56.9091C93.4238 57.2846 93.271 57.6686 93.1339 58.0587L93.5934 56.9091Z" fill="#0158DB"/>
<path d="M93.5934 56.9091C93.4238 57.2846 93.271 57.6686 93.1339 58.0587L93.5934 56.9091Z" fill="url(#paint9_linear_7_168)"/>
<path d="M97.8391 65.6796C97.0498 63.3884 96.7528 61.0291 96.8892 58.7236C95.6217 58.6456 94.3629 58.4286 93.1292 58.0709C92.074 61.0733 91.9732 64.4235 93.0441 67.622L97.8391 65.6796Z" fill="#0158DB"/>
<path d="M97.8391 65.6796C97.0498 63.3884 96.7528 61.0291 96.8892 58.7236C95.6217 58.6456 94.3629 58.4286 93.1292 58.0709C92.074 61.0733 91.9732 64.4235 93.0441 67.622L97.8391 65.6796Z" fill="url(#paint10_linear_7_168)"/>
<path d="M99.5356 50.2391C96.8579 51.8166 94.8156 54.1799 93.593 56.9089C94.7133 57.2247 95.8559 57.4167 97.0045 57.4868C97.3337 54.917 98.2017 52.4436 99.5356 50.2391Z" fill="#0158DB"/>
<path d="M99.5356 50.2391C96.8579 51.8166 94.8156 54.1799 93.593 56.9089C94.7133 57.2247 95.8559 57.4167 97.0045 57.4868C97.3337 54.917 98.2017 52.4436 99.5356 50.2391Z" fill="url(#paint11_linear_7_168)"/>
<path d="M102.719 73.0875C101.907 73.9903 101.189 74.9814 100.579 76.0545C100.579 76.0545 100.579 76.0545 100.58 76.0551C103.379 77.3379 106.591 77.7042 109.745 76.9428C107.151 76.2227 104.741 74.9077 102.719 73.0875Z" fill="#0158DB"/>
<path d="M102.719 73.0875C101.907 73.9903 101.189 74.9814 100.579 76.0545C100.579 76.0545 100.579 76.0545 100.58 76.0551C103.379 77.3379 106.591 77.7042 109.745 76.9428C107.151 76.2227 104.741 74.9077 102.719 73.0875Z" fill="url(#paint12_linear_7_168)"/>
<path d="M110.157 52.1506C110.96 51.2865 111.667 50.3409 112.271 49.3379C109.574 48.2006 106.517 47.9046 103.516 48.6269C105.948 49.3042 108.217 50.5046 110.157 52.1506Z" fill="#0158DB"/>
<path d="M110.157 52.1506C110.96 51.2865 111.667 50.3409 112.271 49.3379C109.574 48.2006 106.517 47.9046 103.516 48.6269C105.948 49.3042 108.217 50.5046 110.157 52.1506Z" fill="url(#paint13_linear_7_168)"/>
<path d="M116.308 67.5937C116.033 70.3406 115.138 72.9883 113.718 75.3339C116.528 73.6792 118.636 71.161 119.836 68.2626C118.696 67.913 117.513 67.6873 116.308 67.5937Z" fill="#0158DB"/>
<path d="M116.308 67.5937C116.033 70.3406 115.138 72.9883 113.718 75.3339C116.528 73.6792 118.636 71.161 119.836 68.2626C118.696 67.913 117.513 67.6873 116.308 67.5937Z" fill="url(#paint14_linear_7_168)"/>
<path d="M111.061 52.9742C112.691 54.5665 114.036 56.5054 114.977 58.7392L119.772 56.7985C118.439 53.703 116.144 51.3196 113.379 49.8634C112.721 50.9741 111.944 52.0189 111.061 52.9742Z" fill="#0158DB"/>
<path d="M111.061 52.9742C112.691 54.5665 114.036 56.5054 114.977 58.7392L119.772 56.7985C118.439 53.703 116.144 51.3196 113.379 49.8634C112.721 50.9741 111.944 52.0189 111.061 52.9742Z" fill="url(#paint15_linear_7_168)"/>
<path d="M111.011 75.9776L108.344 68.998C106.568 69.7918 104.964 70.8751 103.585 72.1977C105.697 74.0848 108.263 75.3821 111.011 75.9776Z" fill="#0158DB"/>
<path d="M111.011 75.9776L108.344 68.998C106.568 69.7918 104.964 70.8751 103.585 72.1977C105.697 74.0848 108.263 75.3821 111.011 75.9776Z" fill="url(#paint16_linear_7_168)"/>
<path d="M100.351 92.9606L99.0132 90.0096L97.6897 87.0521L95.0433 81.1354L92.4184 75.2089L91.1122 72.2421L90.4604 70.7582L90.149 69.9938C90.0476 69.7379 89.9646 69.4751 89.8704 69.216C89.1727 67.1247 88.8584 64.8912 88.9682 62.6695C89.0738 60.4483 89.5878 58.2389 90.4793 56.1918C91.3691 54.144 92.6436 52.2654 94.205 50.6764C95.7647 49.0868 97.6178 47.7953 99.6301 46.8744L99.6008 46.8891L99.6158 46.8809L99.6301 46.8744C101.662 45.959 103.857 45.4238 106.069 45.3164C108.28 45.2083 110.504 45.5207 112.59 46.2385C114.674 46.9579 116.619 48.0726 118.288 49.5153C119.123 50.2361 119.891 51.0368 120.575 51.9037C121.259 52.7723 121.859 53.7065 122.368 54.6901C122.494 54.9375 122.624 55.1804 122.734 55.4355C122.845 55.687 122.969 55.9415 123.069 56.1908L123.701 57.6952L124.964 60.7074L127.477 66.7349L129.966 72.7733L131.21 75.7924L132.44 78.8198L131.091 75.8465L129.758 72.8673L127.093 66.909L124.451 60.9399L123.135 57.9515L122.479 56.4579C122.373 56.2059 122.255 55.9718 122.141 55.7272C122.033 55.4829 121.903 55.25 121.778 55.015C120.767 53.1391 119.412 51.465 117.8 50.0985C116.189 48.732 114.318 47.6843 112.321 47.0169C110.326 46.3461 108.206 46.0481 106.1 46.1606C103.994 46.2689 101.907 46.788 99.9699 47.6619L99.9992 47.6471L99.9842 47.6554L99.9699 47.6619C98.0492 48.5341 96.2836 49.7571 94.7915 51.2687C93.2967 52.7772 92.0856 54.5681 91.2152 56.515C90.3448 58.462 89.8345 60.5706 89.7141 62.6979C89.5938 64.8251 89.8599 66.9698 90.5006 68.9949C90.5867 69.2449 90.6648 69.4998 90.7573 69.7482L91.0478 70.4904L91.6758 71.9852L92.9295 74.9758L95.4232 80.9617L97.8955 86.9574L99.1308 89.9549L100.351 92.9606Z" fill="#F56AA1"/>
<path d="M105.088 81.0606C105.751 82.0636 106.314 83.112 106.846 84.1745C107.375 85.2398 107.864 86.3218 108.32 87.4189C108.776 88.516 109.196 89.6293 109.577 90.7617C109.954 91.8944 110.302 93.0419 110.545 94.2353C109.88 93.2316 109.317 92.1831 108.785 91.1206C108.256 90.0553 107.767 88.9734 107.314 87.8752C106.86 86.777 106.439 85.663 106.057 84.5324C105.681 83.4003 105.335 82.2535 105.088 81.0606Z" fill="#F56AA1"/>
<path d="M120.894 74.1636C121.557 75.1666 122.12 76.215 122.652 77.2775C123.181 78.3428 123.671 79.4248 124.126 80.5219C124.582 81.619 125.002 82.7323 125.383 83.8646C125.76 84.9974 126.108 86.1449 126.351 87.3383C125.686 86.3346 125.123 85.2861 124.591 84.2236C124.062 83.1583 123.573 82.0764 123.12 80.9782C122.666 79.88 122.245 78.766 121.863 77.6354C121.488 76.5016 121.142 75.3565 120.894 74.1636Z" fill="#F56AA1"/>
<path d="M114.856 80.2931C115.51 81.5993 116.088 82.9402 116.645 84.2914C117.199 85.6431 117.722 87.0088 118.22 88.387C118.719 89.7635 119.191 91.1537 119.634 92.5568C120.073 93.9621 120.493 95.3743 120.834 96.824C120.177 95.5188 119.602 94.1769 119.044 92.8274C118.49 91.4758 117.967 90.11 117.469 88.7318C116.971 87.3535 116.498 85.9651 116.057 84.5626C115.617 83.1549 115.198 81.741 114.856 80.2931Z" fill="#F56AA1"/>
<path d="M48.75 96.4082L52.2907 87.2702L53.3612 87.685L56.4969 97.5332L55.9355 97.3157L58.844 89.8094L60.1494 90.3153L56.6087 99.4533L55.5382 99.0385L52.4025 89.1903L52.9639 89.4078L50.0554 96.9141L48.75 96.4082ZM63.456 102.106L64.0225 100.644L64.0634 100.345L65.0295 97.8515C65.2352 97.3206 65.2371 96.8509 65.0351 96.4423C64.8451 96.0284 64.4412 95.7017 63.8233 95.4623C63.4142 95.3038 62.9869 95.2183 62.5414 95.2058C62.0991 95.1846 61.6993 95.2349 61.3418 95.3566L61.1839 94.2144C61.652 94.0654 62.1627 94.0131 62.7161 94.0574C63.2816 94.0963 63.8384 94.222 64.3867 94.4344C65.3353 94.802 65.977 95.3159 66.3117 95.9761C66.6465 96.6363 66.6301 97.4407 66.2625 98.3893L64.6439 102.567L63.456 102.106ZM61.1542 101.305C60.6407 101.106 60.2219 100.843 59.8977 100.517C59.5822 100.195 59.379 99.8411 59.2882 99.4555C59.2007 99.0613 59.2329 98.6684 59.3846 98.2767C59.5296 97.9025 59.7481 97.5968 60.0402 97.3597C60.341 97.1259 60.727 96.9952 61.1981 96.9675C61.678 96.9432 62.2617 97.0643 62.9492 97.3307L65.1423 98.1805L64.7933 99.0812L62.6524 98.2517C62.0258 98.0089 61.5632 97.9498 61.2647 98.0743C60.9662 98.1989 60.7596 98.4091 60.645 98.705C60.5135 99.0444 60.5421 99.3709 60.731 99.6843C60.9232 99.989 61.2587 100.234 61.7373 100.42C62.2073 100.602 62.6568 100.656 63.0858 100.582C63.5236 100.511 63.8983 100.306 64.2101 99.9663L64.1243 100.924C63.8005 101.269 63.3825 101.482 62.8703 101.564C62.3615 101.637 61.7895 101.551 61.1542 101.305ZM68.6501 104.119L68.3024 96.0267L69.6078 96.5325L69.8691 103.841L69.2425 103.598L74.4118 98.394L75.6389 98.8694L69.9295 104.615L68.6501 104.119ZM76.9869 107.439C76.2471 107.153 75.6534 106.748 75.2058 106.224C74.7668 105.703 74.4935 105.117 74.3859 104.465C74.287 103.816 74.3708 103.148 74.6372 102.46C74.9036 101.773 75.2876 101.221 75.7892 100.804C76.2995 100.392 76.873 100.138 77.5099 100.045C78.1588 99.9459 78.8139 100.025 79.4753 100.281C80.1455 100.541 80.6799 100.918 81.0787 101.413C81.4776 101.907 81.716 102.48 81.7942 103.131C81.8844 103.777 81.7912 104.456 81.5147 105.17C81.4944 105.222 81.4665 105.281 81.4308 105.348C81.4038 105.417 81.3742 105.481 81.3419 105.538L75.4544 103.257L75.8034 102.356L81.0382 104.385L80.4077 104.501C80.5883 104.06 80.6504 103.629 80.5938 103.207C80.5372 102.784 80.3763 102.412 80.1111 102.089C79.858 101.76 79.5095 101.51 79.0656 101.338C78.6305 101.17 78.2044 101.12 77.7875 101.188C77.3739 101.248 77.0022 101.42 76.6725 101.702C76.3461 101.976 76.0953 102.339 75.9199 102.792L75.839 103.001C75.6603 103.462 75.6045 103.916 75.6718 104.362C75.7511 104.803 75.9434 105.198 76.2488 105.547C76.5542 105.895 76.9549 106.166 77.4509 106.358C77.86 106.516 78.2568 106.59 78.6415 106.579C79.0349 106.571 79.4117 106.477 79.772 106.296L80.1502 107.374C79.6953 107.618 79.1958 107.745 78.6516 107.754C78.1162 107.767 77.5613 107.662 76.9869 107.439ZM83.9466 113.049C83.3113 112.803 82.7288 112.472 82.1991 112.056C81.6748 111.653 81.2895 111.214 81.0435 110.738L82.0183 110.004C82.2324 110.408 82.544 110.779 82.9533 111.117C83.3592 111.465 83.8188 111.738 84.3323 111.937C85.1504 112.254 85.8251 112.295 86.3564 112.061C86.8877 111.826 87.3051 111.317 87.6086 110.534L88.1751 109.072L88.8367 107.752L89.3076 106.343L90.0411 104.45L91.229 104.91L88.9124 110.889C88.4403 112.107 87.7883 112.886 86.9566 113.224C86.1248 113.562 85.1215 113.504 83.9466 113.049ZM84.9129 110.09C84.2427 109.83 83.6962 109.458 83.2732 108.974C82.8623 108.485 82.598 107.927 82.4803 107.301C82.3713 106.678 82.4449 106.036 82.7012 105.374C82.9609 104.704 83.3391 104.18 83.8359 103.802C84.3448 103.419 84.9143 103.189 85.5444 103.113C86.1831 103.04 86.8376 103.134 87.5077 103.393C88.0995 103.623 88.5919 103.953 88.9848 104.386C89.3811 104.81 89.6268 105.325 89.7218 105.933C89.8254 106.543 89.7306 107.227 89.4372 107.984C89.1472 108.733 88.7582 109.298 88.2701 109.679C87.7907 110.064 87.2584 110.288 86.6732 110.352C86.0914 110.407 85.5047 110.319 84.9129 110.09ZM85.4813 109.049C85.9426 109.228 86.3887 109.291 86.8197 109.237C87.2507 109.184 87.6321 109.027 87.9638 108.765C88.3041 108.506 88.5603 108.155 88.7323 107.711C88.9043 107.267 88.9516 106.835 88.8742 106.415C88.8056 105.998 88.6282 105.629 88.3422 105.308C88.0596 104.978 87.6877 104.724 87.2264 104.545C86.7652 104.367 86.3147 104.302 85.875 104.352C85.4473 104.397 85.0633 104.548 84.723 104.807C84.3913 105.068 84.1395 105.421 83.9675 105.865C83.7955 106.309 83.7438 106.739 83.8125 107.156C83.8898 107.577 84.0698 107.952 84.3525 108.281C84.6438 108.615 85.0201 108.87 85.4813 109.049ZM93.8235 113.963C93.2317 113.734 92.7517 113.423 92.3834 113.03C92.0239 112.64 91.8039 112.175 91.7235 111.633C91.6552 111.086 91.7525 110.473 92.0155 109.794L93.5583 105.813L94.8115 106.298L93.3244 110.136C93.0614 110.815 93.0251 111.387 93.2156 111.851C93.4148 112.318 93.8103 112.667 94.4021 112.896C94.8372 113.065 95.2495 113.124 95.639 113.075C96.0318 113.017 96.381 112.852 96.6865 112.58C96.9955 112.299 97.2444 111.915 97.4332 111.428L98.8192 107.851L100.072 108.337L97.3915 115.256L96.2036 114.795L96.9269 112.928L96.9305 113.5C96.5255 113.874 96.0478 114.099 95.4975 114.176C94.9472 114.253 94.3892 114.182 93.8235 113.963ZM102.828 117.452C102.088 117.165 101.494 116.76 101.047 116.236C100.608 115.716 100.334 115.13 100.227 114.477C100.128 113.828 100.212 113.16 100.478 112.473C100.744 111.785 101.128 111.233 101.63 110.817C102.14 110.404 102.714 110.151 103.351 110.057C104 109.959 104.655 110.037 105.316 110.294C105.986 110.553 106.521 110.93 106.92 111.425C107.318 111.92 107.557 112.493 107.635 113.144C107.725 113.789 107.632 114.469 107.356 115.183C107.335 115.235 107.307 115.294 107.272 115.36C107.245 115.43 107.215 115.493 107.183 115.551L101.295 113.27L101.644 112.369L106.879 114.397L106.249 114.513C106.429 114.073 106.491 113.642 106.435 113.219C106.378 112.797 106.217 112.424 105.952 112.101C105.699 111.773 105.35 111.523 104.907 111.351C104.471 111.182 104.045 111.132 103.628 111.201C103.215 111.261 102.843 111.432 102.513 111.715C102.187 111.989 101.936 112.352 101.761 112.805L101.68 113.013C101.501 113.475 101.445 113.929 101.513 114.375C101.592 114.816 101.784 115.211 102.09 115.559C102.395 115.908 102.796 116.178 103.292 116.371C103.701 116.529 104.098 116.603 104.482 116.592C104.876 116.584 105.253 116.49 105.613 116.309L105.991 117.386C105.536 117.631 105.037 117.757 104.493 117.767C103.957 117.779 103.402 117.675 102.828 117.452ZM114.262 121.882C113.557 121.609 112.985 121.212 112.546 120.692C112.115 120.175 111.846 119.59 111.739 118.938C111.631 118.286 111.711 117.616 111.977 116.928C112.243 116.241 112.636 115.692 113.155 115.283C113.674 114.873 114.265 114.627 114.928 114.543C115.603 114.455 116.293 114.547 116.998 114.82C117.625 115.063 118.133 115.405 118.522 115.846C118.924 116.282 119.165 116.796 119.246 117.388L118.055 117.632C117.961 117.205 117.778 116.849 117.508 116.564C117.25 116.274 116.934 116.056 116.56 115.911C116.107 115.736 115.664 115.679 115.23 115.741C114.795 115.803 114.403 115.976 114.052 116.261C113.705 116.537 113.436 116.923 113.243 117.419C113.051 117.915 112.989 118.386 113.056 118.833C113.123 119.279 113.296 119.672 113.576 120.01C113.855 120.348 114.221 120.605 114.673 120.781C115.048 120.926 115.426 120.982 115.809 120.95C116.204 120.913 116.58 120.769 116.938 120.517L117.658 121.487C117.203 121.861 116.676 122.082 116.079 122.151C115.494 122.215 114.888 122.125 114.262 121.882ZM121.565 124.712C120.869 124.442 120.31 124.051 119.888 123.537C119.467 123.023 119.202 122.44 119.095 121.788C118.99 121.127 119.07 120.457 119.333 119.778C119.599 119.091 119.992 118.542 120.511 118.133C121.03 117.723 121.617 117.475 122.271 117.388C122.928 117.293 123.605 117.38 124.302 117.65C124.989 117.916 125.544 118.306 125.965 118.82C126.399 119.328 126.665 119.907 126.764 120.556C126.875 121.199 126.796 121.869 126.526 122.565C126.259 123.253 125.867 123.802 125.348 124.211C124.837 124.624 124.249 124.876 123.583 124.968C122.925 125.064 122.253 124.979 121.565 124.712ZM121.99 123.616C122.434 123.788 122.869 123.841 123.294 123.776C123.729 123.714 124.117 123.539 124.459 123.251C124.804 122.954 125.071 122.562 125.26 122.075C125.452 121.579 125.517 121.114 125.455 120.679C125.396 120.236 125.228 119.845 124.948 119.507C124.678 119.172 124.321 118.918 123.877 118.746C123.433 118.574 122.998 118.521 122.572 118.586C122.147 118.652 121.759 118.827 121.408 119.111C121.061 119.387 120.791 119.773 120.599 120.269C120.41 120.756 120.348 121.228 120.412 121.683C120.479 122.129 120.648 122.52 120.918 122.855C121.189 123.19 121.546 123.444 121.99 123.616ZM138.28 123.066C138.837 123.282 139.286 123.581 139.628 123.964C139.97 124.347 140.173 124.806 140.236 125.34C140.308 125.879 140.212 126.487 139.949 127.166L138.406 131.148L137.153 130.662L138.64 126.824C138.9 126.154 138.939 125.588 138.757 125.128C138.575 124.667 138.201 124.327 137.636 124.108C137.218 123.946 136.819 123.891 136.438 123.944C136.057 123.997 135.714 124.159 135.409 124.431C135.112 124.706 134.865 125.096 134.67 125.601L133.289 129.165L132.036 128.679L133.523 124.841C133.783 124.171 133.822 123.606 133.64 123.145C133.467 122.687 133.093 122.347 132.518 122.125C132.109 121.966 131.715 121.913 131.334 121.966C130.953 122.019 130.61 122.181 130.304 122.453C129.999 122.725 129.748 123.113 129.553 123.618L128.172 127.182L126.919 126.696L129.599 119.778L130.8 120.243L130.087 122.084L130.073 121.538C130.466 121.17 130.938 120.947 131.488 120.87C132.039 120.793 132.614 120.871 133.215 121.103C133.876 121.36 134.382 121.746 134.732 122.262C135.086 122.77 135.209 123.383 135.101 124.101L134.673 123.695C135.087 123.245 135.618 122.96 136.265 122.841C136.912 122.721 137.583 122.796 138.28 123.066ZM53.4118 119.663L53.0641 111.571L54.3695 112.077L54.6308 119.385L54.0042 119.142L59.1735 113.938L60.4006 114.414L54.6912 120.159L53.4118 119.663ZM61.7486 122.984C61.0088 122.697 60.4151 122.292 59.9675 121.768C59.5285 121.248 59.2552 120.661 59.1476 120.009C59.0487 119.36 59.1325 118.692 59.3989 118.004C59.6653 117.317 60.0493 116.765 60.5509 116.349C61.0612 115.936 61.6347 115.683 62.2715 115.589C62.9204 115.49 63.5756 115.569 64.237 115.825C64.9071 116.085 65.4416 116.462 65.8404 116.957C66.2392 117.452 66.4777 118.025 66.5558 118.676C66.646 119.321 66.5529 120.001 66.2764 120.714C66.2561 120.767 66.2282 120.826 66.1925 120.892C66.1655 120.962 66.1359 121.025 66.1036 121.083L60.2161 118.802L60.5651 117.901L65.7999 119.929L65.1694 120.045C65.35 119.605 65.4121 119.173 65.3555 118.751C65.2989 118.329 65.138 117.956 64.8728 117.633C64.6197 117.305 64.2712 117.055 63.8273 116.883C63.3922 116.714 62.9661 116.664 62.5491 116.733C62.1355 116.793 61.7639 116.964 61.4342 117.247C61.1078 117.521 60.857 117.884 60.6816 118.336L60.6007 118.545C60.422 119.006 60.3662 119.46 60.4335 119.907C60.5128 120.348 60.7051 120.743 61.0105 121.091C61.3158 121.44 61.7166 121.71 62.2126 121.902C62.6217 122.061 63.0185 122.135 63.4032 122.123C63.7965 122.116 64.1734 122.022 64.5337 121.841L64.9119 122.918C64.457 123.162 63.9575 123.289 63.4133 123.299C62.8779 123.311 62.323 123.206 61.7486 122.984ZM66.6913 124.809L70.4445 115.123L71.6977 115.608L67.9445 125.294L66.6913 124.809ZM73.2703 127.448C72.5741 127.178 72.0152 126.787 71.5936 126.273C71.1721 125.759 70.9075 125.176 70.7999 124.524C70.6957 123.863 70.7751 123.193 71.0381 122.514C71.3045 121.827 71.6972 121.278 72.2162 120.869C72.7352 120.459 73.3218 120.211 73.9761 120.124C74.6337 120.029 75.3106 120.116 76.0068 120.386C76.6943 120.652 77.2489 121.042 77.6704 121.556C78.104 122.064 78.3703 122.643 78.4692 123.292C78.5802 123.935 78.5008 124.605 78.231 125.301C77.9646 125.989 77.5719 126.537 77.0529 126.947C76.5426 127.36 75.9543 127.612 75.288 127.704C74.6304 127.8 73.9578 127.715 73.2703 127.448ZM73.6952 126.352C74.1391 126.524 74.5738 126.577 74.9995 126.512C75.4339 126.45 75.8219 126.275 76.1637 125.987C76.5089 125.69 76.7759 125.298 76.9648 124.811C77.157 124.315 77.2221 123.85 77.1602 123.415C77.1017 122.972 76.9328 122.581 76.6535 122.243C76.383 121.908 76.0258 121.654 75.5819 121.482C75.1381 121.31 74.7033 121.257 74.2776 121.322C73.852 121.388 73.4639 121.563 73.1134 121.847C72.7662 122.123 72.4966 122.509 72.3044 123.005C72.1155 123.492 72.053 123.964 72.1169 124.419C72.1842 124.865 72.353 125.256 72.6236 125.591C72.8942 125.926 73.2514 126.18 73.6952 126.352ZM81.609 130.679C80.904 130.406 80.3321 130.009 79.8931 129.489C79.4629 128.972 79.1939 128.387 79.0863 127.735C78.9787 127.083 79.0581 126.413 79.3245 125.725C79.5909 125.038 79.9836 124.489 80.5026 124.08C81.0216 123.67 81.6126 123.424 82.2755 123.34C82.9505 123.251 83.6405 123.344 84.3454 123.617C84.972 123.86 85.4801 124.202 85.8697 124.643C86.2713 125.079 86.5126 125.593 86.5936 126.184L85.4029 126.429C85.3081 126.002 85.1257 125.646 84.8557 125.361C84.5978 125.071 84.2817 124.853 83.9075 124.708C83.4549 124.533 83.0115 124.476 82.5771 124.538C82.1427 124.6 81.7503 124.773 81.3998 125.058C81.0527 125.334 80.783 125.72 80.5908 126.216C80.3986 126.712 80.3361 127.183 80.4033 127.63C80.4706 128.076 80.6438 128.468 80.9231 128.807C81.2023 129.145 81.5682 129.402 82.0208 129.578C82.395 129.723 82.7735 129.779 83.1562 129.747C83.551 129.71 83.9272 129.566 84.285 129.314L85.0053 130.284C84.5501 130.658 84.0238 130.879 83.4266 130.948C82.8414 131.012 82.2356 130.922 81.609 130.679ZM85.9923 132.287L88.6731 125.369L89.9264 125.854L87.2455 132.773L85.9923 132.287ZM89.8157 124.28C89.572 124.186 89.3978 124.028 89.2932 123.807C89.1972 123.59 89.1931 123.368 89.2808 123.142C89.3718 122.907 89.526 122.741 89.7434 122.645C89.9694 122.553 90.2043 122.554 90.448 122.648C90.6916 122.743 90.8615 122.898 90.9574 123.116C91.0654 123.328 91.0756 123.547 90.9879 123.773C90.8969 124.008 90.741 124.178 90.5203 124.283C90.3029 124.379 90.0681 124.378 89.8157 124.28ZM92.4669 134.886C91.7968 134.627 91.2536 134.246 90.8374 133.744C90.4298 133.246 90.1766 132.673 90.0777 132.024C89.9788 131.375 90.0659 130.698 90.3391 129.993C90.6122 129.288 91.0023 128.734 91.5092 128.329C92.0195 127.917 92.5931 127.663 93.2299 127.57C93.8754 127.48 94.5332 127.564 95.2034 127.824C95.7864 128.05 96.2624 128.384 96.6312 128.828C97 129.271 97.2224 129.807 97.2986 130.437C97.3835 131.071 97.2742 131.779 96.9707 132.563C96.6672 133.346 96.275 133.945 95.7942 134.359C95.3221 134.776 94.7988 135.029 94.2243 135.117C93.6532 135.196 93.0674 135.119 92.4669 134.886ZM92.9962 133.83C93.4313 133.999 93.8617 134.05 94.2874 133.985C94.7218 133.923 95.1099 133.748 95.4517 133.46C95.8055 133.167 96.0769 132.777 96.2657 132.289C96.458 131.793 96.5188 131.326 96.4481 130.889C96.3896 130.446 96.2207 130.055 95.9414 129.716C95.6709 129.381 95.318 129.13 94.8829 128.961C94.4391 128.789 94.0043 128.736 93.5786 128.801C93.1529 128.866 92.7649 129.041 92.4144 129.326C92.0672 129.602 91.7976 129.988 91.6054 130.484C91.4165 130.971 91.354 131.442 91.4179 131.897C91.4851 132.344 91.654 132.735 91.9246 133.07C92.1951 133.405 92.5523 133.658 92.9962 133.83ZM94.9645 135.764L95.6878 133.897L96.3883 132.322L96.8799 130.666L98.6654 126.057L99.9187 126.543L96.1655 136.229L94.9645 135.764ZM102.832 138.812L103.398 137.35L103.439 137.051L104.405 134.557C104.611 134.026 104.613 133.557 104.411 133.148C104.221 132.734 103.817 132.408 103.199 132.168C102.79 132.01 102.363 131.924 101.917 131.912C101.475 131.89 101.075 131.941 100.717 132.062L100.559 130.92C101.028 130.771 101.538 130.719 102.092 130.763C102.657 130.802 103.214 130.928 103.762 131.14C104.711 131.508 105.353 132.022 105.687 132.682C106.022 133.342 106.006 134.147 105.638 135.095L104.019 139.273L102.832 138.812ZM100.53 138.01C100.016 137.811 99.5974 137.549 99.2733 137.223C98.9578 136.901 98.7546 136.547 98.6638 136.161C98.5763 135.767 98.6084 135.374 98.7602 134.983C98.9052 134.608 99.1237 134.303 99.4158 134.065C99.7166 133.832 100.103 133.701 100.574 133.673C101.054 133.649 101.637 133.77 102.325 134.037L104.518 134.886L104.169 135.787L102.028 134.958C101.401 134.715 100.939 134.656 100.64 134.78C100.342 134.905 100.135 135.115 100.021 135.411C99.8891 135.75 99.9177 136.077 100.107 136.39C100.299 136.695 100.634 136.94 101.113 137.125C101.583 137.307 102.032 137.362 102.461 137.288C102.899 137.217 103.274 137.012 103.586 136.672L103.5 137.63C103.176 137.975 102.758 138.188 102.246 138.27C101.737 138.343 101.165 138.257 100.53 138.01ZM109.167 141.357C108.497 141.098 107.954 140.717 107.538 140.215C107.13 139.717 106.877 139.144 106.778 138.495C106.679 137.846 106.766 137.169 107.039 136.464C107.313 135.759 107.703 135.204 108.21 134.8C108.72 134.387 109.293 134.134 109.93 134.041C110.576 133.95 111.234 134.035 111.904 134.295C112.487 134.521 112.963 134.855 113.332 135.299C113.7 135.742 113.923 136.278 113.999 136.908C114.084 137.542 113.974 138.25 113.671 139.033C113.368 139.817 112.975 140.415 112.495 140.83C112.022 141.247 111.499 141.5 110.925 141.588C110.354 141.667 109.768 141.59 109.167 141.357ZM109.697 140.301C110.132 140.47 110.562 140.521 110.988 140.456C111.422 140.394 111.81 140.219 112.152 139.931C112.506 139.638 112.777 139.248 112.966 138.76C113.158 138.264 113.219 137.797 113.148 137.36C113.09 136.917 112.921 136.526 112.642 136.187C112.371 135.852 112.018 135.6 111.583 135.432C111.139 135.26 110.705 135.207 110.279 135.272C109.853 135.337 109.465 135.512 109.115 135.797C108.768 136.073 108.498 136.458 108.306 136.955C108.117 137.442 108.054 137.913 108.118 138.368C108.185 138.815 108.354 139.206 108.625 139.541C108.895 139.876 109.253 140.129 109.697 140.301ZM111.665 142.235L112.388 140.368L113.089 138.793L113.58 137.137L115.366 132.528L116.619 133.014L112.866 142.7L111.665 142.235ZM118.287 144.891C117.548 144.604 116.954 144.199 116.506 143.675C116.067 143.155 115.794 142.569 115.687 141.916C115.588 141.268 115.671 140.599 115.938 139.912C116.204 139.224 116.588 138.672 117.09 138.256C117.6 137.843 118.174 137.59 118.81 137.497C119.459 137.398 120.114 137.476 120.776 137.733C121.446 137.992 121.98 138.37 122.379 138.864C122.778 139.359 123.017 139.932 123.095 140.583C123.185 141.228 123.092 141.908 122.815 142.622C122.795 142.674 122.767 142.733 122.731 142.799C122.704 142.869 122.675 142.933 122.642 142.99L116.755 140.709L117.104 139.808L122.339 141.836L121.708 141.952C121.889 141.512 121.951 141.081 121.894 140.658C121.838 140.236 121.677 139.863 121.412 139.54C121.159 139.212 120.81 138.962 120.366 138.79C119.931 138.621 119.505 138.571 119.088 138.64C118.674 138.7 118.303 138.871 117.973 139.154C117.647 139.428 117.396 139.791 117.22 140.244L117.14 140.453C116.961 140.914 116.905 141.368 116.972 141.814C117.052 142.255 117.244 142.65 117.549 142.999C117.855 143.347 118.255 143.617 118.752 143.81C119.161 143.968 119.557 144.042 119.942 144.031C120.335 144.023 120.712 143.929 121.073 143.748L121.451 144.826C120.996 145.07 120.496 145.196 119.952 145.206C119.417 145.219 118.862 145.114 118.287 144.891Z" fill="#252525"/>
<defs>
<filter id="filter0_d_7_168" x="0.889954" y="0.402201" width="210.938" height="200.947" filterUnits="userSpaceOnUse" color-interpolation-filters="sRGB">
<feFlood flood-opacity="0" result="BackgroundImageFix"/>
<feColorMatrix in="SourceAlpha" type="matrix" values="0 0 0 0 0 0 0 0 0 0 0 0 0 0 0 0 0 0 127 0" result="hardAlpha"/>
<feOffset dx="5" dy="9"/>
<feGaussianBlur stdDeviation="8"/>
<feComposite in2="hardAlpha" operator="out"/>
<feColorMatrix type="matrix" values="0 0 0 0 0 0 0 0 0 0 0 0 0 0 0 0 0 0 0.25 0"/>
<feBlend mode="normal" in2="BackgroundImageFix" result="effect1_dropShadow_7_168"/>
<feBlend mode="normal" in="SourceGraphic" in2="effect1_dropShadow_7_168" result="shape"/>
</filter>
<linearGradient id="paint0_linear_7_168" x1="102.129" y1="49.8818" x2="102.11" y2="56.8899" gradientUnits="userSpaceOnUse">
<stop stop-color="#3BC3E1"/>
<stop offset="0.348958" stop-color="#1C32FF"/>
<stop offset="1" stop-color="#FF6DCE"/>
</linearGradient>
<linearGradient id="paint1_linear_7_168" x1="98.9353" y1="56.6094" x2="100.634" y2="67.2461" gradientUnits="userSpaceOnUse">
<stop stop-color="#3BC3E1"/>
<stop offset="0.348958" stop-color="#1C32FF"/>
<stop offset="1" stop-color="#FF6DCE"/>
</linearGradient>
<linearGradient id="paint2_linear_7_168" x1="106.633" y1="53.3747" x2="108.116" y2="64.0147" gradientUnits="userSpaceOnUse">
<stop stop-color="#3BC3E1"/>
<stop offset="0.348958" stop-color="#1C32FF"/>
<stop offset="1" stop-color="#FF6DCE"/>
</linearGradient>
<linearGradient id="paint3_linear_7_168" x1="108.952" y1="59.1548" x2="110.457" y2="69.3887" gradientUnits="userSpaceOnUse">
<stop stop-color="#3BC3E1"/>
<stop offset="0.348958" stop-color="#1C32FF"/>
<stop offset="1" stop-color="#FF6DCE"/>
</linearGradient>
<linearGradient id="paint4_linear_7_168" x1="110.252" y1="66.5439" x2="113.322" y2="75.0098" gradientUnits="userSpaceOnUse">
<stop stop-color="#3BC3E1"/>
<stop offset="0.348958" stop-color="#1C32FF"/>
<stop offset="1" stop-color="#FF6DCE"/>
</linearGradient>
<linearGradient id="paint5_linear_7_168" x1="94.4934" y1="66.1488" x2="95.2105" y2="75.8399" gradientUnits="userSpaceOnUse">
<stop stop-color="#3BC3E1"/>
<stop offset="0.348958" stop-color="#1C32FF"/>
<stop offset="1" stop-color="#FF6DCE"/>
</linearGradient>
<linearGradient id="paint6_linear_7_168" x1="116.374" y1="57.4071" x2="119.066" y2="67.5495" gradientUnits="userSpaceOnUse">
<stop stop-color="#3BC3E1"/>
<stop offset="0.348958" stop-color="#1C32FF"/>
<stop offset="1" stop-color="#FF6DCE"/>
</linearGradient>
<linearGradient id="paint7_linear_7_168" x1="100.95" y1="62.4015" x2="102.474" y2="72.7245" gradientUnits="userSpaceOnUse">
<stop stop-color="#3BC3E1"/>
<stop offset="0.348958" stop-color="#1C32FF"/>
<stop offset="1" stop-color="#FF6DCE"/>
</linearGradient>
<linearGradient id="paint8_linear_7_168" x1="100.397" y1="50.6031" x2="103.312" y2="58.5228" gradientUnits="userSpaceOnUse">
<stop stop-color="#3BC3E1"/>
<stop offset="0.348958" stop-color="#1C32FF"/>
<stop offset="1" stop-color="#FF6DCE"/>
</linearGradient>
<linearGradient id="paint9_linear_7_168" x1="93.5314" y1="57.0119" x2="93.579" y2="57.032" gradientUnits="userSpaceOnUse">
<stop stop-color="#3BC3E1"/>
<stop offset="0.348958" stop-color="#1C32FF"/>
<stop offset="1" stop-color="#FF6DCE"/>
</linearGradient>
<linearGradient id="paint10_linear_7_168" x1="93.0602" y1="58.2325" x2="96.0769" y2="68.6495" gradientUnits="userSpaceOnUse">
<stop stop-color="#3BC3E1"/>
<stop offset="0.348958" stop-color="#1C32FF"/>
<stop offset="1" stop-color="#FF6DCE"/>
</linearGradient>
<linearGradient id="paint11_linear_7_168" x1="96.3244" y1="49.852" x2="100.08" y2="55.6257" gradientUnits="userSpaceOnUse">
<stop stop-color="#3BC3E1"/>
<stop offset="0.348958" stop-color="#1C32FF"/>
<stop offset="1" stop-color="#FF6DCE"/>
</linearGradient>
<linearGradient id="paint12_linear_7_168" x1="101.728" y1="73.0687" x2="101.009" y2="77.9124" gradientUnits="userSpaceOnUse">
<stop stop-color="#3BC3E1"/>
<stop offset="0.348958" stop-color="#1C32FF"/>
<stop offset="1" stop-color="#FF6DCE"/>
</linearGradient>
<linearGradient id="paint13_linear_7_168" x1="104.298" y1="46.5897" x2="103.616" y2="51.1984" gradientUnits="userSpaceOnUse">
<stop stop-color="#3BC3E1"/>
<stop offset="0.348958" stop-color="#1C32FF"/>
<stop offset="1" stop-color="#FF6DCE"/>
</linearGradient>
<linearGradient id="paint14_linear_7_168" x1="116.237" y1="67.7702" x2="120.191" y2="73.7861" gradientUnits="userSpaceOnUse">
<stop stop-color="#3BC3E1"/>
<stop offset="0.348958" stop-color="#1C32FF"/>
<stop offset="1" stop-color="#FF6DCE"/>
</linearGradient>
<linearGradient id="paint15_linear_7_168" x1="112.139" y1="50.1716" x2="112.707" y2="60.0204" gradientUnits="userSpaceOnUse">
<stop stop-color="#3BC3E1"/>
<stop offset="0.348958" stop-color="#1C32FF"/>
<stop offset="1" stop-color="#FF6DCE"/>
</linearGradient>
<linearGradient id="paint16_linear_7_168" x1="105.079" y1="68.3215" x2="105.093" y2="75.8579" gradientUnits="userSpaceOnUse">
<stop stop-color="#3BC3E1"/>
<stop offset="0.348958" stop-color="#1C32FF"/>
<stop offset="1" stop-color="#FF6DCE"/>
</linearGradient>
</defs>
</svg>
