<svg width="834" height="439" viewBox="0 0 834 439" fill="none" xmlns="http://www.w3.org/2000/svg">
<path d="M834 332H515.595C504.549 332 495.595 323.046 495.595 312V201C495.595 189.954 486.64 181 475.595 181H75.2912C64.2455 181 55.2912 189.954 55.2912 201V415C55.2912 426.046 46.3369 435 35.2912 435H0" stroke="#D4BAB2" stroke-width="8"/>
<path d="M120.502 88.9868C155.932 83.6596 180.332 108.067 175.012 143.497M120.502 54.9253C174.743 49.598 214.402 89.2566 209.074 143.498M120.502 20.8561C193.562 15.5365 248.464 70.4391 243.144 143.499M134.167 143.5C126.62 143.5 120.5 137.38 120.5 129.833C120.5 122.287 126.62 116.167 134.167 116.167C141.713 116.167 147.833 122.287 147.833 129.833C147.833 137.38 141.713 143.5 134.167 143.5Z" stroke="#D5BAB2" stroke-width="8" stroke-linecap="round" stroke-linejoin="round"/>
</svg>
