<svg width="834" height="937" viewBox="0 0 834 937" fill="none" xmlns="http://www.w3.org/2000/svg">
<path d="M0 0H834V777.12L558.027 894.5L0 777.12V0Z" fill="#E9EBFF"/>
<g clip-path="url(#clip0_542_245)">
<path d="M-13.0131 121.48L-12.7739 138.537C-11.0415 262.035 122.529 338.407 229.839 277.258L245.26 268.47C346.125 210.993 471.567 283.329 472.344 399.418L472.616 440.016C473.179 524.01 556.042 582.641 635.437 555.221V555.221" stroke="#C9CDF2" stroke-width="0.653416"/>
<path d="M-18.6747 131.286L-18.4355 148.343C-16.7031 271.841 116.867 348.213 224.177 287.064L239.599 278.276C340.463 220.799 465.905 293.135 466.683 409.224L466.955 449.822C467.517 533.816 550.38 592.447 629.775 565.026V565.026" stroke="#C9CDF2" stroke-width="0.653416"/>
<path d="M-24.3354 141.092L-24.0961 158.149C-22.3638 281.647 111.206 358.019 218.516 296.87L233.938 288.082C334.802 230.605 460.244 302.941 461.022 419.03L461.294 459.628C461.857 543.622 544.72 602.253 624.115 574.832V574.832" stroke="#C9CDF2" stroke-width="0.653416"/>
<path d="M-29.9975 150.897L-29.7582 167.955C-28.0259 291.453 105.544 367.825 212.854 306.675L228.276 297.887C329.14 240.411 454.582 312.747 455.36 428.836L455.632 469.434C456.195 553.428 539.058 612.059 618.452 584.638V584.638" stroke="#C9CDF2" stroke-width="0.653416"/>
<path d="M-35.6581 160.703L-35.4189 177.761C-33.6865 301.258 99.8836 377.631 207.194 316.481L222.615 307.693C323.48 250.217 448.922 322.553 449.699 438.641L449.971 479.239C450.534 563.234 533.397 621.864 612.792 594.444V594.444" stroke="#C9CDF2" stroke-width="0.653416"/>
<path d="M-41.321 170.509L-41.0817 187.566C-39.3494 311.064 94.2208 387.437 201.531 326.287L216.953 317.499C317.817 260.022 443.259 332.359 444.036 448.447L444.308 489.045C444.871 573.04 527.734 631.67 607.129 604.25V604.25" stroke="#C9CDF2" stroke-width="0.653416"/>
<path d="M-46.9814 180.315L-46.7421 197.373C-45.0098 320.87 88.5604 397.243 195.87 336.093L211.292 327.305C312.156 269.829 437.598 342.165 438.376 458.253L438.648 498.851C439.211 582.846 522.074 641.476 601.469 614.056V614.056" stroke="#C9CDF2" stroke-width="0.653416"/>
<path d="M-52.6428 190.121L-52.4035 207.178C-50.6712 330.676 82.899 407.048 190.209 345.899L205.631 337.111C306.495 279.634 431.937 351.97 432.715 468.059L432.987 508.657C433.549 592.651 516.412 651.282 595.807 623.861V623.861" stroke="#C9CDF2" stroke-width="0.653416"/>
<path d="M-58.3046 199.927L-58.0654 216.984C-56.333 340.482 77.2371 416.855 184.547 355.705L199.969 346.917C300.833 289.44 426.275 361.776 427.053 477.865L427.325 518.463C427.887 602.458 510.751 661.088 590.145 633.668V633.668" stroke="#C9CDF2" stroke-width="0.653416"/>
<path d="M-63.9653 209.732L-63.726 226.79C-61.9937 350.288 71.5765 426.66 178.886 365.51L194.308 356.722C295.172 299.246 420.614 371.582 421.392 487.671L421.664 528.269C422.227 612.263 505.09 670.893 584.485 643.473V643.473" stroke="#C9CDF2" stroke-width="0.653416"/>
<path d="M-69.6274 219.538L-69.3881 236.596C-67.6558 360.094 65.9144 436.466 173.224 375.316L188.646 366.528C289.51 309.052 414.952 381.388 415.73 497.477L416.002 538.075C416.565 622.069 499.428 680.699 578.823 653.279V653.279" stroke="#C9CDF2" stroke-width="0.653416"/>
<path d="M-75.2885 229.344L-75.0492 246.401C-73.3169 369.899 60.2532 446.272 167.563 385.122L182.985 376.334C283.849 318.857 409.291 391.194 410.069 507.282L410.341 547.88C410.904 631.875 493.767 690.505 573.161 663.085V663.085" stroke="#C9CDF2" stroke-width="0.653416"/>
<path d="M-80.9494 239.15L-80.7101 256.207C-78.9778 379.705 54.5923 456.078 161.902 394.928L177.324 386.14C278.188 328.663 403.63 401 404.408 517.088L404.68 557.686C405.243 641.681 488.106 700.311 567.501 672.891V672.891" stroke="#C9CDF2" stroke-width="0.653416"/>
<path d="M-86.611 248.956L-86.3718 266.013C-84.6394 389.511 48.9307 465.884 156.241 404.734L171.663 395.946C272.527 338.469 397.969 410.806 398.746 526.894L399.018 567.492C399.581 651.487 482.444 710.117 561.839 682.697V682.697" stroke="#C9CDF2" stroke-width="0.653416"/>
<path d="M-92.2726 258.762L-92.0334 275.819C-90.301 399.317 43.2691 475.689 150.579 414.54L166.001 405.752C266.865 348.275 392.307 420.611 393.085 536.7L393.357 577.298C393.919 661.293 476.783 719.923 556.177 692.503V692.503" stroke="#C9CDF2" stroke-width="0.653416"/>
<path d="M-97.8 268.336L-97.5607 285.393C-95.8284 408.891 37.7417 485.263 145.052 424.114L160.474 415.326C261.338 357.849 386.78 430.185 387.557 546.274L387.829 586.872C388.392 670.866 471.255 729.497 550.65 702.077V702.077" stroke="#C9CDF2" stroke-width="0.653416"/>
<path d="M-103.327 277.909L-103.088 294.967C-101.356 418.465 32.2144 494.837 139.524 433.687L154.946 424.899C255.81 367.423 381.252 439.759 382.03 555.848L382.302 596.446C382.865 680.44 465.728 739.07 545.123 711.65V711.65" stroke="#C9CDF2" stroke-width="0.653416"/>
<path d="M-108.855 287.483L-108.616 304.54C-106.883 428.038 26.6868 504.411 133.997 443.261L149.419 434.473C250.283 376.996 375.725 449.333 376.502 565.421L376.774 606.019C377.337 690.014 460.2 748.644 539.595 721.224V721.224" stroke="#C9CDF2" stroke-width="0.653416"/>
<path d="M-114.382 297.057L-114.143 314.114C-112.411 437.612 21.1595 513.985 128.469 452.835L143.891 444.047C244.755 386.57 370.197 458.907 370.975 574.995L371.247 615.593C371.81 699.588 454.673 758.218 534.068 730.798V730.798" stroke="#C9CDF2" stroke-width="0.653416"/>
<path d="M-119.91 306.631L-119.67 323.688C-117.938 447.186 15.6321 523.558 122.942 462.409L138.364 453.621C239.228 396.144 364.67 468.48 365.448 584.569L365.72 625.167C366.282 709.161 449.146 767.792 528.54 740.371V740.371" stroke="#C9CDF2" stroke-width="0.653416"/>
<path d="M-125.437 316.204L-125.198 333.262C-123.465 456.759 10.1047 533.132 117.415 471.982L132.836 463.194C233.701 405.718 359.143 478.054 359.92 594.142L360.192 634.74C360.755 718.735 443.618 777.365 523.013 749.945V749.945" stroke="#C9CDF2" stroke-width="0.653416"/>
<path d="M-130.964 325.778L-130.725 342.836C-128.993 466.333 4.57732 542.706 111.887 481.556L127.309 472.768C228.173 415.292 353.615 487.628 354.393 603.716L354.665 644.314C355.228 728.309 438.091 786.939 517.486 759.519V759.519" stroke="#C9CDF2" stroke-width="0.653416"/>
<path d="M-136.492 335.352L-136.253 352.409C-134.52 475.907 -0.950147 552.279 106.36 491.13L121.782 482.342C222.646 424.865 348.088 497.201 348.865 613.29L349.137 653.888C349.7 737.883 432.563 796.513 511.958 769.093V769.093" stroke="#C9CDF2" stroke-width="0.653416"/>
<path d="M-142.019 344.925L-141.78 361.983C-140.048 485.481 -6.47749 561.853 100.832 500.703L116.254 491.915C217.119 434.439 342.56 506.775 343.338 622.864L343.61 663.462C344.173 747.456 427.036 806.086 506.431 778.666V778.666" stroke="#C9CDF2" stroke-width="0.653416"/>
<path d="M-147.547 354.499L-147.307 371.557C-145.575 495.055 -12.005 571.427 95.305 510.277L110.727 501.489C211.591 444.013 337.033 516.349 337.811 632.438L338.083 673.036C338.645 757.03 421.508 815.66 500.903 788.24V788.24" stroke="#C9CDF2" stroke-width="0.653416"/>
<path d="M-153.074 364.073L-152.835 381.13C-151.103 504.628 -17.5324 581.001 89.7775 519.851L105.199 511.063C206.064 453.586 331.505 525.923 332.283 642.011L332.555 682.609C333.118 766.604 415.981 825.234 495.376 797.814V797.814" stroke="#C9CDF2" stroke-width="0.653416"/>
<path d="M-158.602 373.647L-158.362 390.704C-156.63 514.202 -23.0598 590.575 84.2502 529.425L99.6721 520.637C200.536 463.16 325.978 535.497 326.756 651.585L327.028 692.183C327.591 776.178 410.454 834.808 489.848 807.388V807.388" stroke="#C9CDF2" stroke-width="0.653416"/>
<path d="M-164.129 383.221L-163.89 400.278C-162.157 523.776 -28.5871 600.148 78.7228 538.999L94.1447 530.211C195.009 472.734 320.451 545.07 321.229 661.159L321.501 701.757C322.063 785.751 404.926 844.382 484.321 816.961V816.961" stroke="#C9CDF2" stroke-width="0.653416"/>
<path d="M-169.656 392.794L-169.417 409.852C-167.685 533.349 -34.1146 609.722 73.1954 548.572L88.6172 539.784C189.481 482.308 314.923 554.644 315.701 670.732L315.973 711.33C316.536 795.325 399.399 853.955 478.794 826.535V826.535" stroke="#C9CDF2" stroke-width="0.653416"/>
</g>
<defs>
<clipPath id="clip0_542_245">
<rect width="774" height="999" fill="white"/>
</clipPath>
</defs>
</svg>
