<svg width="1440" height="439" viewBox="0 0 1440 439" fill="none" xmlns="http://www.w3.org/2000/svg">
<path d="M1440 332H875.703C864.657 332 855.703 323.046 855.703 312V201C855.703 189.954 846.749 181 835.703 181H115.467C104.421 181 95.4669 189.954 95.4669 201V415C95.4669 426.046 86.5125 435 75.4669 435H0" stroke="#D4BAB2" stroke-width="8"/>
<path d="M607.502 88.9868C642.932 83.6596 667.332 108.067 662.012 143.497M607.502 54.9253C661.743 49.598 701.402 89.2566 696.074 143.498M607.502 20.8561C680.562 15.5365 735.464 70.4391 730.144 143.499M621.167 143.5C613.62 143.5 607.5 137.38 607.5 129.833C607.5 122.287 613.62 116.167 621.167 116.167C628.713 116.167 634.833 122.287 634.833 129.833C634.833 137.38 628.713 143.5 621.167 143.5Z" stroke="#D5BAB2" stroke-width="8" stroke-linecap="round" stroke-linejoin="round"/>
</svg>
