<svg width="430" height="159" viewBox="0 0 430 159" fill="none" xmlns="http://www.w3.org/2000/svg">
<path d="M430 112.799H275.522C264.477 112.799 255.522 103.845 255.522 92.7992V68C255.522 56.9543 246.568 48 235.522 48H48.5074C37.4617 48 28.5075 56.9543 28.5075 68V137C28.5075 148.046 19.5532 157 8.50746 157H0" stroke="#D4BAB2" stroke-width="4"/>
<path d="M321.876 51.5472C342.4 48.4613 356.534 62.5996 353.452 83.1234M321.876 31.8165C353.296 28.7305 376.269 51.7035 373.183 83.1239M321.876 12.0813C364.197 8.99982 396.001 40.8031 392.919 83.1244M329.792 83.125C325.42 83.125 321.875 79.5797 321.875 75.2083C321.875 70.837 325.42 67.2917 329.792 67.2917C334.163 67.2917 337.708 70.837 337.708 75.2083C337.708 79.5797 334.163 83.125 329.792 83.125Z" stroke="#D5BAB2" stroke-width="8" stroke-linecap="round" stroke-linejoin="round"/>
</svg>
