<svg width="1440" height="797" viewBox="0 0 1440 797" fill="none" xmlns="http://www.w3.org/2000/svg">
<path d="M0 0H1440V657.5L963.5 797L0 657.5V0Z" fill="#E9EBFF"/>
<path d="M131.11 -379.611L131.472 -353.835C134.09 -167.218 335.927 -51.8113 498.083 -144.214L521.387 -157.494C673.803 -244.347 863.358 -135.04 864.533 40.3815L864.944 101.729C865.795 228.653 991.009 317.249 1110.98 275.815V275.815" stroke="#C9CDF2" stroke-width="0.653416"/>
<path d="M122.555 -364.793L122.917 -339.017C125.534 -152.4 327.372 -36.9936 489.528 -129.397L512.832 -142.676C665.247 -229.529 854.803 -120.222 855.978 55.1993L856.389 116.547C857.239 243.471 982.454 332.067 1102.43 290.633V290.633" stroke="#C9CDF2" stroke-width="0.653416"/>
<path d="M114.001 -349.975L114.363 -324.199C116.981 -137.582 318.818 -22.1757 480.974 -114.579L504.278 -127.858C656.694 -214.711 846.249 -105.404 847.424 70.0172L847.835 131.365C848.686 258.289 973.9 346.885 1093.87 305.45V305.45" stroke="#C9CDF2" stroke-width="0.653416"/>
<path d="M105.445 -335.158L105.807 -309.382C108.424 -122.765 310.262 -7.35831 472.418 -99.7615L495.722 -113.041C648.138 -199.894 837.693 -90.5868 838.868 84.8345L839.279 146.182C840.13 273.106 965.344 361.702 1085.32 320.268V320.268" stroke="#C9CDF2" stroke-width="0.653416"/>
<path d="M96.8911 -320.34L97.2527 -294.565C99.8704 -107.947 301.708 7.45907 463.864 -84.9441L487.168 -98.2235C639.584 -185.076 829.139 -75.7694 830.314 99.6519L830.725 161C831.576 287.924 956.79 376.52 1076.76 335.085V335.085" stroke="#C9CDF2" stroke-width="0.653416"/>
<path d="M88.3342 -305.522L88.6958 -279.747C91.3135 -93.1293 293.151 22.2771 455.307 -70.1261L478.611 -83.4056C631.027 -170.258 820.582 -60.9514 821.757 114.47L822.168 175.817C823.019 302.742 948.233 391.338 1068.21 349.903V349.903" stroke="#C9CDF2" stroke-width="0.653416"/>
<path d="M79.7806 -290.705L80.1422 -264.929C82.7599 -78.3116 284.598 37.0948 446.753 -55.3084L470.057 -68.5878C622.473 -155.441 812.029 -46.1336 813.204 129.288L813.615 190.635C814.465 317.559 939.679 406.156 1059.65 364.721V364.721" stroke="#C9CDF2" stroke-width="0.653416"/>
<path d="M71.2259 -275.887L71.5875 -250.112C74.2052 -63.4943 276.043 51.9121 438.199 -40.4911L461.503 -53.7705C613.918 -140.623 803.474 -31.3164 804.649 144.105L805.06 205.453C805.91 332.377 931.125 420.973 1051.1 379.538V379.538" stroke="#C9CDF2" stroke-width="0.653416"/>
<path d="M62.6701 -261.069L63.0317 -235.294C65.6494 -48.6762 267.487 66.7302 429.643 -25.673L452.947 -38.9524C605.363 -125.805 794.918 -16.4983 796.093 158.923L796.504 220.271C797.355 347.195 922.569 435.791 1042.54 394.356V394.356" stroke="#C9CDF2" stroke-width="0.653416"/>
<path d="M54.1163 -246.252L54.4779 -220.476C57.0956 -33.8588 258.933 81.5476 421.089 -10.8556L444.393 -24.135C596.809 -110.988 786.364 -1.68087 787.539 173.74L787.95 235.088C788.801 362.012 914.015 450.608 1033.99 409.174V409.174" stroke="#C9CDF2" stroke-width="0.653416"/>
<path d="M45.5603 -231.434L45.9219 -205.659C48.5396 -19.0413 250.377 96.3651 412.533 3.9619L435.837 -9.31754C588.253 -96.1704 777.808 13.1366 778.983 188.558L779.394 249.906C780.245 376.83 905.459 465.426 1025.43 423.991V423.991" stroke="#C9CDF2" stroke-width="0.653416"/>
<path d="M37.006 -216.617L37.3675 -190.841C39.9853 -4.2238 241.823 111.183 403.979 18.7794L427.283 5.49996C579.698 -81.3529 769.254 27.9541 770.429 203.375L770.84 264.723C771.69 391.647 896.905 480.243 1016.88 438.809V438.809" stroke="#C9CDF2" stroke-width="0.653416"/>
<path d="M28.4517 -201.799L28.8133 -176.024C31.431 10.5935 233.269 126 395.425 33.5967L418.728 20.3173C571.144 -66.5356 760.7 42.7715 761.875 218.193L762.286 279.54C763.136 406.464 888.35 495.061 1008.32 453.626V453.626" stroke="#C9CDF2" stroke-width="0.653416"/>
<path d="M19.8964 -186.982L20.258 -161.206C22.8757 25.4114 224.713 140.818 386.869 48.4147L410.173 35.1352C562.589 -51.7177 752.144 57.5894 753.32 233.011L753.731 294.358C754.581 421.282 879.795 509.879 999.769 468.444V468.444" stroke="#C9CDF2" stroke-width="0.653416"/>
<path d="M11.3412 -172.164L11.7028 -146.388C14.3205 40.2293 216.158 155.636 378.314 63.2325L401.618 49.953C554.034 -36.8999 743.589 72.4072 744.764 247.829L745.175 309.176C746.026 436.1 871.24 524.696 991.213 483.262V483.262" stroke="#C9CDF2" stroke-width="0.653416"/>
<path d="M2.98876 -157.697L3.35032 -131.921C5.96806 54.6961 207.806 170.103 369.962 77.6993L393.265 64.4199C545.681 -22.433 735.237 86.8741 736.412 262.295L736.823 323.643C737.673 450.567 862.888 539.163 982.861 497.729V497.729" stroke="#C9CDF2" stroke-width="0.653416"/>
<path d="M-5.36372 -143.23L-5.00216 -117.454C-2.38442 69.163 199.453 184.569 361.609 92.1662L384.913 78.8868C537.329 -7.96609 726.884 101.341 728.059 276.762L728.47 338.11C729.321 465.034 854.535 553.63 974.509 512.196V512.196" stroke="#C9CDF2" stroke-width="0.653416"/>
<path d="M-13.7162 -128.763L-13.3546 -102.987C-10.7369 83.6298 191.101 199.036 353.257 106.633L376.56 93.3536C528.976 6.5007 718.532 115.808 719.707 291.229L720.118 352.577C720.968 479.501 846.183 568.097 966.156 526.662V526.662" stroke="#C9CDF2" stroke-width="0.653416"/>
<path d="M-22.0686 -114.296L-21.7071 -88.5206C-19.0893 98.0967 182.748 213.503 344.904 121.1L368.208 107.82C520.624 20.9676 710.179 130.275 711.355 305.696L711.766 367.044C712.616 493.968 837.83 582.564 957.804 541.129V541.129" stroke="#C9CDF2" stroke-width="0.653416"/>
<path d="M-30.4211 -99.8294L-30.0595 -74.0537C-27.4418 112.564 174.396 227.97 336.552 135.567L359.855 122.287C512.271 35.4345 701.827 144.742 703.002 320.163L703.413 381.51C704.263 508.435 829.478 597.031 949.451 555.596V555.596" stroke="#C9CDF2" stroke-width="0.653416"/>
<path d="M-38.7736 -85.3625L-38.412 -59.5869C-35.7943 127.03 166.043 242.437 328.199 150.034L351.503 136.754C503.919 49.9013 693.474 159.208 694.65 334.63L695.061 395.977C695.911 522.901 821.125 611.498 941.099 570.063V570.063" stroke="#C9CDF2" stroke-width="0.653416"/>
<path d="M-47.126 -70.8957L-46.7644 -45.12C-44.1467 141.497 157.691 256.904 319.847 164.501L343.151 151.221C495.566 64.3682 685.122 173.675 686.297 349.097L686.708 410.444C687.558 537.368 812.773 625.965 932.746 584.53V584.53" stroke="#C9CDF2" stroke-width="0.653416"/>
<path d="M-55.4785 -56.4288L-55.1169 -30.6531C-52.4992 155.964 149.338 271.371 311.494 178.967L334.798 165.688C487.214 78.8351 676.769 188.142 677.945 363.563L678.356 424.911C679.206 551.835 804.42 640.431 924.394 598.997V598.997" stroke="#C9CDF2" stroke-width="0.653416"/>
<path d="M-63.8309 -41.9618L-63.4694 -16.1861C-60.8516 170.431 140.986 285.838 303.142 193.434L326.446 180.155C478.861 93.3021 668.417 202.609 669.592 378.03L670.003 439.378C670.854 566.302 796.068 654.898 916.041 613.464V613.464" stroke="#C9CDF2" stroke-width="0.653416"/>
<path d="M-72.1834 -27.4951L-71.8218 -1.71943C-69.2041 184.898 132.634 300.304 294.789 207.901L318.093 194.622C470.509 107.769 660.065 217.076 661.24 392.497L661.651 453.845C662.501 580.769 787.715 669.365 907.689 627.93V627.93" stroke="#C9CDF2" stroke-width="0.653416"/>
<path d="M-80.5358 -13.028L-80.1743 12.7476C-77.5565 199.365 124.281 314.771 286.437 222.368L309.741 209.089C462.157 122.236 651.712 231.543 652.887 406.964L653.298 468.312C654.149 595.236 779.363 683.832 899.336 642.397V642.397" stroke="#C9CDF2" stroke-width="0.653416"/>
<path d="M-88.8883 1.43881L-88.5268 27.2145C-85.909 213.832 115.929 329.238 278.085 236.835L301.388 223.556C453.804 136.703 643.36 246.01 644.535 421.431L644.946 482.779C645.796 609.703 771.01 698.299 890.984 656.864V656.864" stroke="#C9CDF2" stroke-width="0.653416"/>
<path d="M-97.2407 15.9057L-96.8792 41.6813C-94.2614 228.299 107.576 343.705 269.732 251.302L293.036 238.022C445.452 151.17 635.007 260.477 636.182 435.898L636.593 497.245C637.444 624.17 762.658 712.766 882.632 671.331V671.331" stroke="#C9CDF2" stroke-width="0.653416"/>
<path d="M-105.593 30.3726L-105.232 56.1482C-102.614 242.766 99.2237 358.172 261.38 265.769L284.683 252.489C437.099 165.636 626.655 274.944 627.83 450.365L628.241 511.712C629.091 638.637 754.306 727.233 874.279 685.798V685.798" stroke="#C9CDF2" stroke-width="0.653416"/>
</svg>
