<svg xmlns="http://www.w3.org/2000/svg" xmlns:xlink="http://www.w3.org/1999/xlink" width="1440" height="351" fill="none" viewBox="0 0 1440 351">
  <path fill="#E9EBFF" d="M0 0h1440v350H0V0Z"/>
  <g clip-path="url(#a)">
    <path stroke="#AAB0F1" stroke-miterlimit="10" stroke-width="2" d="M1456 10.391c-14.46 11.67-28.27 10.027-38.46 8.876-9.04-.986-13.31-1.315-19.07 3.287-5.75 4.603-6.41 8.876-7.39 17.916-1.15 10.026-2.63 23.833-17.1 35.503-14.46 11.67-28.27 10.026-38.46 8.876-9.04-.987-13.31-1.316-19.07 3.287-5.75 4.602-6.41 8.875-7.39 17.915-1.15 10.027-2.63 23.833-17.1 35.503-14.46 11.67-28.27 10.026-38.46 8.876-9.04-.986-13.31-1.315-19.06 3.287L1218 133.172c14.46-11.67 28.27-10.027 38.46-8.876 9.04.986 13.31 1.315 19.07-3.287 5.75-4.603 6.41-8.876 7.39-17.916 1.15-10.026 2.63-23.833 17.1-35.503 14.46-11.67 28.27-10.026 38.46-8.876 9.04.987 13.31 1.315 19.07-3.287 5.75-4.602 6.41-8.876 7.39-17.916 1.15-10.026 2.63-23.832 17.1-35.502 14.46-11.67 28.27-10.027 38.46-8.876 9.04.986 13.31 1.315 19.06-3.287L1456 10.39Z"/>
  </g>
  <g clip-path="url(#b)">
    <path fill="url(#c)" fill-rule="evenodd" d="M1074.48 45.906c38.74 4.903 81.18-2.843 113.08 19.646 31.53 22.227 34.75 66.283 55.2 98.973 24.48 39.138 83.43 66.269 76.71 111.923-6.73 45.698-73.87 51.845-105.76 85.298-29.69 31.137-36.68 80.664-73.58 102.809-41.01 24.615-91.47 33.34-138.49 24.462-49.32-9.313-106.089-29.157-127.206-74.634-21.46-46.216 31.305-97.414 23.912-147.821-7.427-50.639-74.785-85.154-65.463-135.479 8.999-48.577 61.824-80.246 108.469-96.692 42.871-15.114 88.028 5.806 133.128 11.515Z" clip-rule="evenodd"/>
    <path fill="url(#d)" d="M868.908-12h414.185v418.286H868.908z"/>
  </g>
  <path stroke="#AEB2D9" stroke-linecap="round" stroke-linejoin="round" stroke-miterlimit="10" stroke-width="2" d="m0 296.898 39.285 27.666 39.146-27.666 39.284 27.666L157 296.898l39.146 27.666 39.285-27.666 39.284 27.666L314 296.898"/>
  <path stroke="#CDD0F4" stroke-linecap="round" stroke-linejoin="round" stroke-miterlimit="10" stroke-width="2" d="m0 272 39.285 27.665L78.43 272l39.284 27.665L157 272l39.146 27.665L235.431 272l39.284 27.665L314 272"/>
  <defs>
    <clipPath id="a">
      <path fill="#fff" d="M0 0h222v154H0z" transform="translate(1218)"/>
    </clipPath>
    <clipPath id="b">
      <path fill="#fff" d="M0 0h488v351H0z" transform="translate(832)"/>
    </clipPath>
    <linearGradient id="c" x1="832" x2="1320" y1="260.706" y2="260.706" gradientUnits="userSpaceOnUse">
      <stop stop-color="#D4D7F5"/>
      <stop offset="1" stop-color="#8186BC"/>
    </linearGradient>
    <pattern id="d" width="1" height="1" patternContentUnits="objectBoundingBox">
      <use xlink:href="#e" transform="matrix(.00067 0 0 .00066 -.001 0)"/>
    </pattern>
  </defs>
</svg>
