<svg width="222" height="227" viewBox="0 0 222 227" fill="none" xmlns="http://www.w3.org/2000/svg">
<g filter="url(#filter0_d_7_97)">
<rect x="65.3627" y="3" width="150" height="160" rx="15" transform="rotate(21.18 65.3627 3)" fill="white"/>
</g>
<path d="M129.64 63.0551C128.163 66.8665 124.071 68.8334 120.496 67.4482C116.921 66.0629 115.221 61.8519 116.698 58.0405C118.175 54.2291 122.269 52.2602 125.844 53.6454C129.419 55.0307 131.117 59.2438 129.64 63.0551Z" fill="#0158DB"/>
<path d="M128.043 47.97C118.819 44.396 108.927 52.8129 110.236 63.1217L113.185 86.3158L130.992 71.1641C132.904 69.5365 134.259 67.5504 135.084 65.4219C137.671 58.7454 135.037 50.6799 128.043 47.97ZM119.679 69.5563C115.022 67.752 112.799 62.2426 114.724 57.2754C116.648 52.3082 122.003 49.7349 126.66 51.5393C131.317 53.3436 133.539 58.853 131.615 63.8202C129.69 68.7874 124.335 71.3607 119.679 69.5563Z" fill="url(#paint0_linear_7_97)"/>
<path d="M129.64 63.0551C128.163 66.8665 124.071 68.8334 120.496 67.4482C116.921 66.0629 115.221 61.8519 116.698 58.0405C118.175 54.2291 122.269 52.2602 125.844 53.6454C129.419 55.0307 131.117 59.2438 129.64 63.0551Z" fill="#FFE6FE"/>
<path d="M125.843 53.6475C122.27 52.263 118.175 54.2292 116.697 58.0426C115.221 61.854 116.92 66.0651 120.495 67.4503C124.07 68.8356 128.163 66.8687 129.639 63.0573C131.117 59.2439 129.416 55.032 125.843 53.6475ZM120.798 66.6689C117.633 65.4426 116.121 61.6996 117.429 58.3237C118.737 54.9478 122.377 53.1986 125.542 54.4249C128.707 55.6512 130.216 59.3955 128.908 62.7714C127.6 66.1473 123.962 67.8952 120.798 66.6689Z" fill="#FFE6FE"/>
<path d="M125.843 53.6475C122.27 52.263 118.175 54.2292 116.697 58.0426C115.221 61.854 116.92 66.0651 120.495 67.4503C124.07 68.8356 128.163 66.8687 129.639 63.0573C131.117 59.2439 129.416 55.032 125.843 53.6475ZM120.798 66.6689C117.633 65.4426 116.121 61.6996 117.429 58.3237C118.737 54.9478 122.377 53.1986 125.542 54.4249C128.707 55.6512 130.216 59.3955 128.908 62.7714C127.6 66.1473 123.962 67.8952 120.798 66.6689Z" fill="#FFE6FE"/>
<path d="M129.64 63.0551C128.163 66.8665 124.071 68.8334 120.496 67.4482C116.921 66.0629 115.221 61.8519 116.698 58.0405C118.175 54.2291 122.269 52.2602 125.844 53.6454C129.419 55.0307 131.117 59.2438 129.64 63.0551Z" fill="#F56AA1"/>
<path d="M129.64 63.0551C128.163 66.8665 124.071 68.8334 120.496 67.4482C116.921 66.0629 115.221 61.8519 116.698 58.0405C118.175 54.2291 122.269 52.2602 125.844 53.6454C129.419 55.0307 131.117 59.2438 129.64 63.0551Z" fill="url(#paint1_linear_7_97)"/>
<g opacity="0.51">
<path d="M110.378 93.5601C114.547 95.1756 118.229 95.7062 118.601 94.7453C118.973 93.7844 115.895 91.6959 111.726 90.0804C107.557 88.465 103.876 87.9344 103.503 88.8953C103.131 89.8562 106.209 91.9447 110.378 93.5601Z" fill="#CCCCCC"/>
</g>
<path d="M81.9505 105.657L85.4912 96.5191L89.055 97.9C89.8557 98.2103 90.49 98.6012 90.9579 99.0727C91.4258 99.5443 91.7193 100.078 91.8384 100.675C91.9575 101.272 91.889 101.901 91.6327 102.562C91.3764 103.224 91.0032 103.735 90.5132 104.095C90.0265 104.447 89.4497 104.644 88.7829 104.686C88.1194 104.719 87.3873 104.581 86.5866 104.271L83.7408 103.168L84.566 102.782L83.2559 106.163L81.9505 105.657ZM84.5154 102.912L84.1809 102.032L86.9875 103.12C87.823 103.443 88.5231 103.509 89.0878 103.318C89.6612 103.13 90.0744 102.709 90.3273 102.056C90.5802 101.404 90.5582 100.815 90.2613 100.289C89.9731 99.7672 89.4113 99.3443 88.5758 99.0206L85.7691 97.9331L86.6095 97.508L84.5154 102.912ZM91.1887 109.237L94.9419 99.5504L96.1951 100.036L92.442 109.722L91.1887 109.237ZM99.1296 112.314L99.6961 110.852L99.7371 110.552L100.703 108.059C100.909 107.528 100.911 107.058 100.709 106.65C100.519 106.236 100.115 105.909 99.4969 105.67C99.0879 105.511 98.6606 105.426 98.215 105.413C97.7728 105.392 97.373 105.442 97.0155 105.564L96.8575 104.422C97.3256 104.273 97.8364 104.22 98.3898 104.265C98.9552 104.304 99.5121 104.429 100.06 104.642C101.009 105.009 101.651 105.523 101.985 106.183C102.32 106.844 102.304 107.648 101.936 108.597L100.318 112.774L99.1296 112.314ZM96.8278 111.512C96.3144 111.313 95.8955 111.05 95.5714 110.725C95.2559 110.402 95.0527 110.048 94.9619 109.663C94.8744 109.268 94.9065 108.876 95.0583 108.484C95.2033 108.11 95.4218 107.804 95.7139 107.567C96.0147 107.333 96.4006 107.202 96.8718 107.175C97.3516 107.15 97.9353 107.272 98.6229 107.538L100.816 108.388L100.467 109.288L98.3261 108.459C97.6994 108.216 97.2369 108.157 96.9384 108.282C96.6399 108.406 96.4333 108.616 96.3187 108.912C96.1871 109.252 96.2158 109.578 96.4047 109.891C96.5969 110.196 96.9324 110.441 97.411 110.627C97.881 110.809 98.3305 110.863 98.7595 110.789C99.1973 110.718 99.572 110.513 99.8838 110.174L99.798 111.131C99.4741 111.476 99.0561 111.69 98.544 111.771C98.0352 111.845 97.4631 111.758 96.8278 111.512ZM109.037 108.12C109.603 108.339 110.057 108.64 110.399 109.023C110.75 109.409 110.961 109.871 111.033 110.41C111.104 110.948 111.009 111.556 110.746 112.235L109.203 116.217L107.95 115.731L109.437 111.893C109.697 111.223 109.727 110.654 109.528 110.187C109.337 109.723 108.946 109.376 108.354 109.147C107.91 108.975 107.489 108.911 107.091 108.957C106.693 109.003 106.337 109.161 106.023 109.429C105.717 109.701 105.466 110.09 105.271 110.594L103.89 114.158L102.637 113.673L105.318 106.754L106.519 107.219L105.795 109.086L105.792 108.514C106.193 108.149 106.678 107.931 107.246 107.861C107.813 107.791 108.411 107.877 109.037 108.12ZM114.455 118.342C113.759 118.072 113.2 117.68 112.779 117.167C112.357 116.653 112.093 116.07 111.985 115.418C111.881 114.757 111.96 114.087 112.223 113.408C112.489 112.721 112.882 112.172 113.401 111.763C113.92 111.353 114.507 111.105 115.161 111.018C115.819 110.923 116.496 111.01 117.192 111.28C117.879 111.546 118.434 111.936 118.855 112.45C119.289 112.958 119.555 113.537 119.654 114.186C119.765 114.829 119.686 115.499 119.416 116.195C119.15 116.883 118.757 117.431 118.238 117.841C117.728 118.254 117.139 118.506 116.473 118.598C115.815 118.694 115.143 118.608 114.455 118.342ZM114.88 117.245C115.324 117.417 115.759 117.471 116.184 117.405C116.619 117.344 117.007 117.169 117.349 116.881C117.694 116.584 117.961 116.192 118.15 115.705C118.342 115.209 118.407 114.743 118.345 114.309C118.287 113.866 118.118 113.475 117.839 113.137C117.568 112.802 117.211 112.548 116.767 112.376C116.323 112.204 115.888 112.151 115.463 112.216C115.037 112.281 114.649 112.456 114.298 112.741C113.951 113.017 113.682 113.403 113.489 113.899C113.301 114.386 113.238 114.857 113.302 115.313C113.369 115.759 113.538 116.15 113.809 116.485C114.079 116.82 114.436 117.073 114.88 117.245ZM121.763 121.173C121.188 120.951 120.67 120.66 120.209 120.301C119.756 119.945 119.426 119.597 119.217 119.256L120.124 118.466C120.342 118.781 120.642 119.093 121.023 119.4C121.404 119.708 121.821 119.95 122.274 120.125C122.857 120.351 123.307 120.43 123.623 120.363C123.948 120.299 124.168 120.119 124.283 119.823C124.367 119.605 124.355 119.405 124.245 119.223C124.136 119.04 123.962 118.868 123.725 118.706C123.496 118.547 123.233 118.385 122.937 118.22C122.644 118.047 122.354 117.864 122.068 117.673C121.785 117.474 121.538 117.258 121.328 117.026C121.121 116.786 120.984 116.518 120.919 116.222C120.856 115.918 120.903 115.565 121.058 115.165C121.22 114.747 121.479 114.427 121.835 114.205C122.192 113.983 122.615 113.871 123.106 113.871C123.608 113.866 124.155 113.978 124.747 114.207C125.2 114.382 125.635 114.616 126.052 114.908C126.482 115.194 126.806 115.495 127.024 115.81L126.104 116.595C125.872 116.264 125.601 115.994 125.292 115.785C124.983 115.575 124.659 115.404 124.319 115.273C123.771 115.06 123.327 114.993 122.986 115.071C122.649 115.141 122.426 115.315 122.318 115.593C122.227 115.828 122.235 116.041 122.341 116.233C122.459 116.418 122.631 116.595 122.856 116.763C123.09 116.933 123.354 117.105 123.647 117.279C123.943 117.444 124.233 117.626 124.516 117.826C124.802 118.017 125.046 118.227 125.248 118.455C125.459 118.687 125.597 118.95 125.662 119.246C125.737 119.545 125.698 119.891 125.546 120.282C125.384 120.7 125.123 121.014 124.761 121.224C124.399 121.434 123.963 121.54 123.451 121.542C122.943 121.536 122.381 121.413 121.763 121.173ZM50.1642 114.88C49.4244 114.593 48.8307 114.188 48.383 113.664C47.9441 113.144 47.6708 112.557 47.5632 111.905C47.4643 111.256 47.548 110.588 47.8144 109.9C48.0808 109.213 48.4648 108.661 48.9664 108.245C49.4767 107.832 50.0503 107.579 50.6871 107.485C51.336 107.386 51.9912 107.465 52.6526 107.721C53.3227 107.981 53.8572 108.358 54.256 108.853C54.6548 109.348 54.8933 109.921 54.9714 110.572C55.0616 111.217 54.9685 111.897 54.6919 112.61C54.6717 112.663 54.6438 112.722 54.6081 112.788C54.5811 112.858 54.5515 112.921 54.5191 112.979L48.6317 110.698L48.9807 109.797L54.2154 111.825L53.5849 111.941C53.7656 111.501 53.8277 111.069 53.7711 110.647C53.7145 110.225 53.5536 109.852 53.2884 109.529C53.0352 109.201 52.6867 108.951 52.2429 108.779C51.8077 108.61 51.3817 108.56 50.9647 108.629C50.5511 108.689 50.1795 108.86 49.8497 109.143C49.5234 109.417 49.2725 109.78 49.0972 110.232L49.0163 110.441C48.8375 110.902 48.7818 111.356 48.849 111.803C48.9283 112.244 49.1207 112.639 49.4261 112.987C49.7314 113.336 50.1321 113.606 50.6282 113.798C51.0372 113.957 51.4341 114.031 51.8187 114.019C52.2121 114.012 52.5889 113.918 52.9492 113.737L53.3275 114.814C52.8726 115.058 52.373 115.185 51.8289 115.194C51.2935 115.207 50.7385 115.102 50.1642 114.88ZM53.9105 116.241L58.3841 113.53L58.1232 114.165L56.7219 109.373L58.1187 109.914L59.183 113.6L58.6478 113.392L61.9175 111.386L63.2882 111.917L58.9747 114.525L59.2457 113.864L60.7509 118.892L59.328 118.34L58.217 114.427L58.6958 114.702L55.3073 116.783L53.9105 116.241ZM64.8742 120.58C64.1693 120.306 63.5973 119.91 63.1584 119.389C62.7281 118.872 62.4592 118.287 62.3516 117.635C62.244 116.983 62.3234 116.313 62.5898 115.626C62.8562 114.938 63.2489 114.389 63.7679 113.98C64.2869 113.571 64.8778 113.324 65.5408 113.241C66.2158 113.152 66.9058 113.244 67.6107 113.517C68.2373 113.76 68.7454 114.102 69.1349 114.543C69.5366 114.979 69.7779 115.493 69.8588 116.085L68.6681 116.329C68.5734 115.902 68.391 115.546 68.121 115.261C67.863 114.971 67.547 114.754 67.1727 114.609C66.7202 114.433 66.2767 114.377 65.8424 114.438C65.408 114.5 65.0155 114.674 64.665 114.958C64.3179 115.234 64.0482 115.62 63.856 116.116C63.6638 116.612 63.6013 117.083 63.6686 117.53C63.7358 117.976 63.9091 118.369 64.1883 118.707C64.4676 119.046 64.8335 119.303 65.286 119.478C65.6603 119.623 66.0387 119.679 66.4214 119.648C66.8162 119.61 67.1925 119.466 67.5503 119.214L68.2706 120.184C67.8153 120.558 67.2891 120.78 66.6918 120.848C66.1067 120.912 65.5008 120.822 64.8742 120.58ZM69.2576 122.188L73.0107 112.502L74.2639 112.987L70.5108 122.673L69.2576 122.188ZM75.7843 124.807C75.1925 124.578 74.7125 124.266 74.3443 123.874C73.9847 123.484 73.7648 123.018 73.6844 122.477C73.616 121.93 73.7134 121.317 73.9764 120.638L75.5191 116.657L76.7724 117.142L75.2852 120.98C75.0222 121.659 74.986 122.23 75.1764 122.695C75.3756 123.162 75.7711 123.511 76.3629 123.74C76.7981 123.908 77.2104 123.968 77.5998 123.919C77.9926 123.861 78.3418 123.696 78.6474 123.424C78.9564 123.143 79.2052 122.759 79.3941 122.272L80.78 118.695L82.0332 119.181L79.3524 126.099L78.1645 125.639L78.8878 123.772L78.8914 124.344C78.4864 124.718 78.0087 124.943 77.4584 125.02C76.908 125.097 76.35 125.026 75.7843 124.807ZM83.6921 127.871C83.1177 127.648 82.5998 127.358 82.1383 126.999C81.6855 126.643 81.355 126.295 81.1468 125.954L82.0534 125.164C82.2717 125.479 82.5715 125.79 82.9527 126.098C83.3339 126.406 83.7507 126.647 84.2033 126.823C84.7864 127.049 85.2362 127.128 85.5526 127.06C85.8778 126.996 86.0977 126.816 86.2123 126.52C86.2966 126.303 86.2841 126.103 86.1746 125.92C86.0652 125.738 85.8917 125.565 85.6542 125.403C85.4254 125.244 85.1628 125.083 84.8664 124.918C84.5733 124.744 84.2836 124.562 83.9973 124.371C83.7143 124.171 83.4676 123.955 83.2571 123.724C83.05 123.483 82.9136 123.215 82.848 122.92C82.7858 122.615 82.8322 122.263 82.9873 121.862C83.1492 121.445 83.4083 121.125 83.7647 120.902C84.1211 120.68 84.5445 120.569 85.035 120.569C85.5376 120.563 86.0848 120.675 86.6766 120.905C87.1291 121.08 87.5641 121.314 87.9815 121.605C88.411 121.892 88.7349 122.193 88.9533 122.507L88.0336 123.292C87.8013 122.962 87.5305 122.692 87.2215 122.482C86.9124 122.272 86.5882 122.102 86.2488 121.97C85.7005 121.758 85.256 121.691 84.9154 121.769C84.5782 121.838 84.3556 122.012 84.2477 122.291C84.1567 122.526 84.1642 122.739 84.2703 122.93C84.3884 123.116 84.5602 123.293 84.7856 123.46C85.0197 123.631 85.2833 123.803 85.5764 123.977C85.8728 124.142 86.1625 124.324 86.4455 124.524C86.7318 124.715 86.9758 124.924 87.1776 125.153C87.3881 125.384 87.5262 125.648 87.5918 125.944C87.6661 126.243 87.6274 126.588 87.4756 126.98C87.3138 127.397 87.052 127.711 86.6903 127.922C86.3286 128.132 85.8921 128.238 85.3808 128.24C84.8729 128.233 84.31 128.11 83.6921 127.871ZM88.2781 129.558L90.9589 122.639L92.2121 123.125L89.5313 130.043L88.2781 129.558ZM92.1015 121.55C91.8578 121.456 91.6836 121.298 91.5789 121.078C91.483 120.86 91.4789 120.638 91.5665 120.412C91.6576 120.177 91.8118 120.012 92.0291 119.916C92.2552 119.823 92.49 119.824 92.7337 119.918C92.9774 120.013 93.1472 120.169 93.2432 120.386C93.3512 120.598 93.3614 120.817 93.2737 121.044C93.1827 121.279 93.0268 121.448 92.8061 121.553C92.5887 121.649 92.3538 121.648 92.1015 121.55ZM93.7386 131.674L93.3909 123.581L94.6963 124.087L94.9576 131.395L94.331 131.152L99.5003 125.949L100.727 126.424L95.018 132.169L93.7386 131.674ZM101.958 134.948C101.262 134.679 100.703 134.287 100.281 133.773C99.8597 133.26 99.5951 132.677 99.4875 132.024C99.3833 131.363 99.4627 130.693 99.7257 130.015C99.9921 129.327 100.385 128.779 100.904 128.369C101.423 127.96 102.009 127.712 102.664 127.625C103.321 127.529 103.998 127.616 104.694 127.886C105.382 128.152 105.936 128.543 106.358 129.056C106.792 129.565 107.058 130.143 107.157 130.792C107.268 131.436 107.188 132.106 106.919 132.802C106.652 133.489 106.26 134.038 105.74 134.447C105.23 134.86 104.642 135.113 103.976 135.205C103.318 135.3 102.645 135.215 101.958 134.948ZM102.383 133.852C102.827 134.024 103.261 134.077 103.687 134.012C104.121 133.95 104.51 133.775 104.851 133.487C105.196 133.19 105.463 132.798 105.652 132.311C105.845 131.815 105.91 131.35 105.848 130.915C105.789 130.472 105.62 130.082 105.341 129.743C105.071 129.408 104.713 129.155 104.269 128.983C103.826 128.811 103.391 128.757 102.965 128.823C102.54 128.888 102.151 129.063 101.801 129.347C101.454 129.623 101.184 130.009 100.992 130.505C100.803 130.993 100.741 131.464 100.804 131.919C100.872 132.366 101.041 132.756 101.311 133.091C101.582 133.426 101.939 133.68 102.383 133.852ZM109.265 137.78C108.691 137.557 108.173 137.267 107.711 136.908C107.259 136.552 106.928 136.204 106.72 135.863L107.627 135.073C107.845 135.388 108.145 135.699 108.526 136.007C108.907 136.315 109.324 136.556 109.776 136.732C110.36 136.958 110.809 137.037 111.126 136.969C111.451 136.905 111.671 136.725 111.785 136.429C111.87 136.212 111.857 136.012 111.748 135.829C111.638 135.646 111.465 135.474 111.227 135.312C110.999 135.153 110.736 134.992 110.44 134.827C110.146 134.653 109.857 134.471 109.57 134.28C109.288 134.08 109.041 133.864 108.83 133.633C108.623 133.392 108.487 133.124 108.421 132.828C108.359 132.524 108.405 132.172 108.561 131.771C108.722 131.354 108.981 131.034 109.338 130.811C109.694 130.589 110.118 130.478 110.608 130.478C111.111 130.472 111.658 130.584 112.25 130.814C112.702 130.989 113.137 131.223 113.555 131.514C113.984 131.801 114.308 132.102 114.526 132.416L113.607 133.201C113.374 132.871 113.104 132.601 112.795 132.391C112.486 132.181 112.161 132.01 111.822 131.879C111.274 131.667 110.829 131.599 110.489 131.678C110.151 131.747 109.929 131.921 109.821 132.2C109.73 132.435 109.737 132.648 109.843 132.839C109.962 133.025 110.133 133.202 110.359 133.369C110.593 133.54 110.856 133.712 111.15 133.886C111.446 134.05 111.736 134.233 112.019 134.433C112.305 134.624 112.549 134.833 112.751 135.062C112.961 135.293 113.099 135.557 113.165 135.853C113.239 136.152 113.201 136.497 113.049 136.889C112.887 137.306 112.625 137.62 112.263 137.831C111.902 138.041 111.465 138.147 110.954 138.149C110.446 138.142 109.883 138.019 109.265 137.78ZM120.995 142.325C120.421 142.102 119.945 141.768 119.567 141.321C119.202 140.869 118.977 140.327 118.892 139.693C118.816 139.063 118.929 138.356 119.233 137.573C119.536 136.79 119.924 136.189 120.396 135.772C120.877 135.357 121.403 135.111 121.974 135.032C122.554 134.956 123.14 135.033 123.731 135.262C124.41 135.525 124.953 135.906 125.361 136.404C125.768 136.903 126.022 137.476 126.121 138.125C126.223 138.765 126.137 139.438 125.864 140.143C125.591 140.848 125.199 141.406 124.689 141.819C124.179 142.232 123.605 142.485 122.968 142.579C122.332 142.673 121.674 142.588 120.995 142.325ZM116.376 143.358L120.038 133.906L121.239 134.372L120.516 136.238L119.815 137.814L119.323 139.47L117.629 143.843L116.376 143.358ZM121.315 141.188C121.759 141.36 122.194 141.413 122.62 141.348C123.054 141.286 123.442 141.111 123.784 140.823C124.138 140.53 124.409 140.139 124.598 139.652C124.79 139.156 124.851 138.689 124.78 138.251C124.722 137.808 124.553 137.417 124.274 137.079C124.003 136.744 123.646 136.49 123.202 136.319C122.767 136.15 122.332 136.097 121.898 136.158C121.472 136.224 121.084 136.399 120.734 136.683C120.395 136.963 120.13 137.35 119.938 137.846C119.749 138.334 119.682 138.803 119.737 139.255C119.804 139.701 119.973 140.092 120.244 140.427C120.523 140.766 120.88 141.019 121.315 141.188ZM130.486 145.912L131.053 144.45L131.094 144.151L132.06 141.658C132.266 141.127 132.268 140.657 132.066 140.248C131.876 139.834 131.472 139.508 130.854 139.268C130.445 139.11 130.017 139.024 129.572 139.012C129.13 138.991 128.73 139.041 128.372 139.163L128.214 138.02C128.682 137.871 129.193 137.819 129.747 137.863C130.312 137.902 130.869 138.028 131.417 138.24C132.366 138.608 133.008 139.122 133.342 139.782C133.677 140.442 133.661 141.247 133.293 142.195L131.674 146.373L130.486 145.912ZM128.185 145.111C127.671 144.912 127.252 144.649 126.928 144.323C126.613 144.001 126.41 143.647 126.319 143.262C126.231 142.867 126.263 142.474 126.415 142.083C126.56 141.709 126.779 141.403 127.071 141.166C127.372 140.932 127.758 140.801 128.229 140.774C128.709 140.749 129.292 140.87 129.98 141.137L132.173 141.986L131.824 142.887L129.683 142.058C129.056 141.815 128.594 141.756 128.295 141.88C127.997 142.005 127.79 142.215 127.676 142.511C127.544 142.85 127.573 143.177 127.762 143.49C127.954 143.795 128.289 144.04 128.768 144.226C129.238 144.408 129.687 144.462 130.116 144.388C130.554 144.317 130.929 144.112 131.241 143.772L131.155 144.73C130.831 145.075 130.413 145.288 129.901 145.37C129.392 145.443 128.82 145.357 128.185 145.111ZM133.994 147.271L136.674 140.353L137.875 140.818L137.147 142.698L137.212 142.182C137.589 141.778 138.052 141.537 138.603 141.46C139.153 141.383 139.759 141.473 140.42 141.729L139.95 142.943C139.901 142.914 139.85 142.889 139.798 142.869C139.755 142.852 139.711 142.835 139.668 142.819C138.998 142.559 138.389 142.553 137.842 142.802C137.296 143.051 136.876 143.553 136.582 144.311L135.247 147.757L133.994 147.271ZM143.044 150.778L143.61 149.316L143.651 149.016L144.617 146.523C144.823 145.992 144.825 145.522 144.623 145.114C144.433 144.7 144.029 144.373 143.411 144.134C143.002 143.975 142.575 143.89 142.129 143.877C141.687 143.856 141.287 143.906 140.929 144.028L140.772 142.886C141.24 142.737 141.75 142.685 142.304 142.729C142.869 142.768 143.426 142.894 143.974 143.106C144.923 143.474 145.565 143.987 145.899 144.648C146.234 145.308 146.218 146.112 145.85 147.061L144.232 151.238L143.044 150.778ZM140.742 149.976C140.228 149.777 139.81 149.515 139.485 149.189C139.17 148.867 138.967 148.513 138.876 148.127C138.788 147.733 138.82 147.34 138.972 146.948C139.117 146.574 139.336 146.268 139.628 146.031C139.929 145.797 140.315 145.667 140.786 145.639C141.266 145.615 141.849 145.736 142.537 146.002L144.73 146.852L144.381 147.753L142.24 146.923C141.613 146.68 141.151 146.621 140.852 146.746C140.554 146.87 140.347 147.081 140.233 147.377C140.101 147.716 140.13 148.042 140.319 148.356C140.511 148.661 140.846 148.906 141.325 149.091C141.795 149.273 142.244 149.327 142.673 149.253C143.111 149.183 143.486 148.978 143.798 148.638L143.712 149.596C143.388 149.941 142.97 150.154 142.458 150.236C141.949 150.309 141.377 150.222 140.742 149.976ZM55.9158 138.557C55.3414 138.335 54.8235 138.044 54.362 137.685C53.9092 137.329 53.5787 136.981 53.3705 136.64L54.2771 135.85C54.4954 136.165 54.7952 136.476 55.1764 136.784C55.5576 137.092 55.9744 137.334 56.427 137.509C57.0101 137.735 57.4598 137.814 57.7763 137.747C58.1015 137.683 58.3214 137.502 58.436 137.207C58.5203 136.989 58.5077 136.789 58.3983 136.606C58.2889 136.424 58.1154 136.252 57.8779 136.089C57.6491 135.931 57.3865 135.769 57.0901 135.604C56.797 135.43 56.5073 135.248 56.221 135.057C55.938 134.857 55.6913 134.642 55.4808 134.41C55.2737 134.17 55.1373 133.901 55.0717 133.606C55.0095 133.301 55.0559 132.949 55.211 132.549C55.3729 132.131 55.632 131.811 55.9884 131.589C56.3448 131.366 56.7682 131.255 57.2587 131.255C57.7613 131.25 58.3085 131.362 58.9003 131.591C59.3528 131.766 59.7878 132 60.2052 132.292C60.6347 132.578 60.9586 132.879 61.177 133.194L60.2573 133.979C60.025 133.648 59.7542 133.378 59.4452 133.168C59.1361 132.959 58.8119 132.788 58.4725 132.656C57.9242 132.444 57.4797 132.377 57.1391 132.455C56.8019 132.525 56.5793 132.699 56.4714 132.977C56.3804 133.212 56.3879 133.425 56.494 133.616C56.6121 133.802 56.7839 133.979 57.0093 134.146C57.2434 134.317 57.507 134.489 57.8001 134.663C58.0965 134.828 58.3862 135.01 58.6691 135.21C58.9555 135.401 59.1995 135.611 59.4013 135.839C59.6118 136.071 59.7499 136.334 59.8155 136.63C59.8898 136.929 59.8511 137.274 59.6993 137.666C59.5375 138.084 59.2757 138.398 58.914 138.608C58.5523 138.818 58.1158 138.924 57.6045 138.926C57.0966 138.92 56.5337 138.797 55.9158 138.557ZM63.3825 141.45C62.7907 141.221 62.3107 140.91 61.9425 140.517C61.5829 140.128 61.3629 139.662 61.2825 139.12C61.2142 138.573 61.3116 137.96 61.5746 137.282L63.1173 133.3L64.3705 133.786L62.8834 137.624C62.6204 138.302 62.5841 138.874 62.7746 139.338C62.9738 139.806 63.3693 140.154 63.9611 140.383C64.3963 140.552 64.8086 140.612 65.198 140.562C65.5908 140.504 65.94 140.339 66.2456 140.067C66.5545 139.787 66.8034 139.403 66.9923 138.915L68.3782 135.338L69.6314 135.824L66.9506 142.743L65.7627 142.283L66.486 140.416L66.4896 140.988C66.0846 141.361 65.6069 141.587 65.0566 141.664C64.5062 141.741 63.9482 141.67 63.3825 141.45ZM73.6312 145.331L74.1977 143.869L74.2387 143.57L75.2048 141.077C75.4105 140.546 75.4124 140.076 75.2103 139.667C75.0204 139.253 74.6165 138.927 73.9985 138.687C73.5895 138.529 73.1622 138.443 72.7166 138.431C72.2744 138.41 71.8746 138.46 71.5171 138.582L71.3591 137.439C71.8272 137.29 72.338 137.238 72.8914 137.282C73.4568 137.321 74.0137 137.447 74.562 137.659C75.5106 138.027 76.1523 138.541 76.487 139.201C76.8218 139.861 76.8054 140.666 76.4378 141.614L74.8192 145.792L73.6312 145.331ZM71.3294 144.53C70.816 144.331 70.3971 144.068 70.073 143.742C69.7575 143.42 69.5543 143.066 69.4635 142.681C69.376 142.286 69.4081 141.893 69.5599 141.502C69.7049 141.128 69.9234 140.822 70.2155 140.585C70.5163 140.351 70.9022 140.22 71.3734 140.193C71.8532 140.168 72.4369 140.289 73.1245 140.556L75.3176 141.405L74.9686 142.306L72.8277 141.477C72.201 141.234 71.7385 141.175 71.44 141.299C71.1415 141.424 70.9349 141.634 70.8203 141.93C70.6887 142.269 70.7174 142.596 70.9063 142.909C71.0985 143.214 71.434 143.459 71.9126 143.645C72.3826 143.827 72.8321 143.881 73.2611 143.807C73.6989 143.736 74.0736 143.531 74.3854 143.191L74.2996 144.149C73.9757 144.494 73.5577 144.707 73.0456 144.789C72.5368 144.862 71.9647 144.776 71.3294 144.53ZM83.6293 149.295C82.9244 149.022 82.3525 148.626 81.9135 148.105C81.4832 147.588 81.2143 147.003 81.1067 146.351C80.9991 145.699 81.0785 145.029 81.3449 144.341C81.6113 143.654 82.004 143.105 82.523 142.696C83.042 142.287 83.633 142.04 84.2959 141.957C84.9709 141.868 85.6609 141.96 86.3658 142.233C86.9924 142.476 87.5005 142.818 87.8901 143.259C88.2917 143.695 88.533 144.209 88.614 144.801L87.4233 145.045C87.3285 144.618 87.1461 144.262 86.8761 143.977C86.6182 143.687 86.3021 143.47 85.9279 143.325C85.4753 143.149 85.0319 143.093 84.5975 143.154C84.1631 143.216 83.7707 143.39 83.4202 143.674C83.073 143.95 82.8034 144.336 82.6112 144.832C82.419 145.328 82.3565 145.799 82.4237 146.246C82.491 146.692 82.6642 147.085 82.9435 147.423C83.2227 147.762 83.5886 148.019 84.0412 148.194C84.4154 148.339 84.7939 148.395 85.1766 148.364C85.5713 148.326 85.9476 148.182 86.3054 147.93L87.0257 148.9C86.5704 149.274 86.0442 149.495 85.447 149.564C84.8618 149.628 84.2559 149.538 83.6293 149.295ZM88.0127 150.904L90.6935 143.985L91.9467 144.471L89.2659 151.389L88.0127 150.904ZM91.8361 142.896C91.5924 142.802 91.4182 142.644 91.3136 142.424C91.2176 142.206 91.2135 141.984 91.3011 141.758C91.3922 141.523 91.5464 141.358 91.7637 141.262C91.9898 141.169 92.2247 141.17 92.4683 141.265C92.712 141.359 92.8818 141.515 92.9778 141.732C93.0858 141.944 93.096 142.163 93.0083 142.39C92.9173 142.625 92.7614 142.794 92.5407 142.899C92.3233 142.995 92.0884 142.994 91.8361 142.896ZM94.4873 153.503C93.8171 153.243 93.274 152.862 92.8577 152.361C92.4502 151.863 92.197 151.289 92.0981 150.64C91.9992 149.991 92.0863 149.314 92.3595 148.609C92.6326 147.904 93.0226 147.35 93.5296 146.946C94.0399 146.533 94.6134 146.28 95.2503 146.186C95.8958 146.096 96.5536 146.181 97.2237 146.44C97.8068 146.666 98.2828 147.001 98.6516 147.444C99.0203 147.887 99.2428 148.424 99.319 149.054C99.4039 149.687 99.2945 150.396 98.9911 151.179C98.6876 151.962 98.2954 152.561 97.8146 152.975C97.3425 153.393 96.8192 153.645 96.2447 153.733C95.6736 153.812 95.0877 153.735 94.4873 153.503ZM95.0166 152.447C95.4517 152.615 95.8821 152.667 96.3078 152.602C96.7422 152.54 97.1303 152.365 97.4721 152.077C97.8259 151.783 98.0973 151.393 98.2861 150.906C98.4783 150.41 98.5391 149.943 98.4685 149.505C98.41 149.062 98.2411 148.671 97.9618 148.333C97.6913 147.998 97.3384 147.746 96.9033 147.577C96.4594 147.405 96.0247 147.352 95.599 147.417C95.1733 147.483 94.7852 147.657 94.4347 147.942C94.0876 148.218 93.8179 148.604 93.6257 149.1C93.4369 149.587 93.3744 150.059 93.4383 150.514C93.5055 150.96 93.6744 151.351 93.945 151.686C94.2155 152.021 94.5727 152.275 95.0166 152.447ZM96.9849 154.38L97.7082 152.514L98.4087 150.938L98.9003 149.282L100.686 144.674L101.939 145.159L98.1859 154.846L96.9849 154.38ZM104.852 157.429L105.418 155.966L105.459 155.667L106.425 153.174C106.631 152.643 106.633 152.173 106.431 151.764C106.241 151.351 105.837 151.024 105.219 150.784C104.81 150.626 104.383 150.54 103.937 150.528C103.495 150.507 103.095 150.557 102.738 150.679L102.58 149.537C103.048 149.388 103.559 149.335 104.112 149.38C104.678 149.418 105.234 149.544 105.783 149.757C106.731 150.124 107.373 150.638 107.708 151.298C108.042 151.958 108.026 152.763 107.658 153.712L106.04 157.889L104.852 157.429ZM102.55 156.627C102.037 156.428 101.618 156.165 101.294 155.84C100.978 155.517 100.775 155.163 100.684 154.778C100.597 154.383 100.629 153.991 100.781 153.599C100.926 153.225 101.144 152.919 101.436 152.682C101.737 152.448 102.123 152.317 102.594 152.29C103.074 152.265 103.658 152.386 104.345 152.653L106.538 153.503L106.189 154.403L104.048 153.574C103.422 153.331 102.959 153.272 102.661 153.397C102.362 153.521 102.156 153.731 102.041 154.027C101.909 154.367 101.938 154.693 102.127 155.006C102.319 155.311 102.655 155.556 103.133 155.742C103.603 155.924 104.053 155.978 104.482 155.904C104.92 155.833 105.294 155.628 105.606 155.288L105.52 156.246C105.196 156.591 104.778 156.805 104.266 156.886C103.757 156.959 103.185 156.873 102.55 156.627ZM111.188 159.974C110.517 159.714 109.974 159.333 109.558 158.832C109.151 158.333 108.897 157.76 108.798 157.111C108.7 156.462 108.787 155.785 109.06 155.08C109.333 154.375 109.723 153.821 110.23 153.417C110.74 153.004 111.314 152.751 111.951 152.657C112.596 152.567 113.254 152.652 113.924 152.911C114.507 153.137 114.983 153.472 115.352 153.915C115.721 154.358 115.943 154.895 116.019 155.525C116.104 156.158 115.995 156.867 115.691 157.65C115.388 158.433 114.996 159.032 114.515 159.446C114.043 159.864 113.519 160.116 112.945 160.204C112.374 160.283 111.788 160.206 111.188 159.974ZM111.717 158.917C112.152 159.086 112.582 159.138 113.008 159.072C113.442 159.011 113.831 158.836 114.172 158.548C114.526 158.254 114.798 157.864 114.986 157.377C115.179 156.881 115.239 156.414 115.169 155.976C115.11 155.533 114.941 155.142 114.662 154.804C114.392 154.469 114.039 154.217 113.604 154.048C113.16 153.876 112.725 153.823 112.299 153.888C111.874 153.953 111.486 154.128 111.135 154.413C110.788 154.689 110.518 155.075 110.326 155.571C110.137 156.058 110.075 156.53 110.139 156.985C110.206 157.431 110.375 157.822 110.645 158.157C110.916 158.492 111.273 158.745 111.717 158.917ZM113.685 160.851L114.409 158.984L115.109 157.409L115.601 155.753L117.386 151.145L118.639 151.63L114.886 161.317L113.685 160.851ZM120.308 163.507C119.568 163.221 118.974 162.816 118.527 162.292C118.088 161.771 117.814 161.185 117.707 160.533C117.608 159.884 117.692 159.216 117.958 158.528C118.225 157.841 118.609 157.289 119.11 156.872C119.62 156.46 120.194 156.206 120.831 156.113C121.48 156.014 122.135 156.093 122.796 156.349C123.466 156.609 124.001 156.986 124.4 157.481C124.799 157.976 125.037 158.548 125.115 159.199C125.205 159.845 125.112 160.524 124.836 161.238C124.815 161.29 124.787 161.349 124.752 161.416C124.725 161.485 124.695 161.549 124.663 161.606L118.775 159.325L119.124 158.424L124.359 160.453L123.729 160.569C123.909 160.128 123.971 159.697 123.915 159.275C123.858 158.852 123.697 158.48 123.432 158.157C123.179 157.828 122.83 157.578 122.387 157.406C121.951 157.238 121.525 157.188 121.108 157.256C120.695 157.316 120.323 157.488 119.993 157.77C119.667 158.044 119.416 158.407 119.241 158.86L119.16 159.069C118.981 159.53 118.925 159.984 118.993 160.43C119.072 160.872 119.264 161.266 119.57 161.615C119.875 161.963 120.276 162.234 120.772 162.426C121.181 162.585 121.578 162.658 121.962 162.647C122.356 162.639 122.733 162.545 123.093 162.364L123.471 163.442C123.016 163.686 122.517 163.813 121.973 163.822C121.437 163.835 120.882 163.73 120.308 163.507Z" fill="#252525"/>
<defs>
<filter id="filter0_d_7_97" x="0.957077" y="0.402191" width="220.871" height="226.582" filterUnits="userSpaceOnUse" color-interpolation-filters="sRGB">
<feFlood flood-opacity="0" result="BackgroundImageFix"/>
<feColorMatrix in="SourceAlpha" type="matrix" values="0 0 0 0 0 0 0 0 0 0 0 0 0 0 0 0 0 0 127 0" result="hardAlpha"/>
<feOffset dx="5" dy="9"/>
<feGaussianBlur stdDeviation="8"/>
<feComposite in2="hardAlpha" operator="out"/>
<feColorMatrix type="matrix" values="0 0 0 0 0 0 0 0 0 0 0 0 0 0 0 0 0 0 0.25 0"/>
<feBlend mode="normal" in2="BackgroundImageFix" result="effect1_dropShadow_7_97"/>
<feBlend mode="normal" in="SourceGraphic" in2="effect1_dropShadow_7_97" result="shape"/>
</filter>
<linearGradient id="paint0_linear_7_97" x1="106.307" y1="42.0477" x2="102.085" y2="86.7255" gradientUnits="userSpaceOnUse">
<stop stop-color="#3BC3E1"/>
<stop offset="0.491416" stop-color="#1C32FF"/>
<stop offset="0.984375" stop-color="#FF6DCE"/>
</linearGradient>
<linearGradient id="paint1_linear_7_97" x1="117.591" y1="47.4416" x2="121.254" y2="69.9505" gradientUnits="userSpaceOnUse">
<stop offset="0.181437" stop-color="#FAFF01"/>
<stop offset="0.644519" stop-color="#FE007A"/>
<stop offset="1" stop-color="#FF4848"/>
</linearGradient>
</defs>
</svg>
