<svg width="78" height="78" viewBox="0 0 78 78" fill="none" xmlns="http://www.w3.org/2000/svg">
<path fill-rule="evenodd" clip-rule="evenodd" d="M26.6531 44.5071C22.9067 35.3112 29.6719 25.25 39.6015 25.25H40.1372C47.5633 25.25 53.5833 31.27 53.5833 38.6961C53.5833 46.9641 46.8808 53.6667 38.6127 53.6667H25.5789C25.0485 53.6667 24.5758 53.3319 24.3998 52.8315C24.2237 52.3312 24.3827 51.7742 24.7962 51.4421L28.082 48.8032C28.2257 48.6879 28.2765 48.4918 28.207 48.3212L26.6531 44.5071ZM39.6015 27.75C31.4473 27.75 25.8918 36.0123 28.9683 43.5638L30.5222 47.3779C31.0089 48.5725 30.6532 49.9448 29.6474 50.7525L29.1317 51.1667H38.6127C45.5 51.1667 51.0833 45.5834 51.0833 38.6961C51.0833 32.6507 46.1826 27.75 40.1372 27.75H39.6015Z" fill="#D50066"/>
<path d="M34 2.88675C37.094 1.10042 40.906 1.10042 44 2.88675L67.775 16.6132C70.869 18.3996 72.775 21.7008 72.775 25.2735V52.7265C72.775 56.2992 70.869 59.6004 67.775 61.3868L44 75.1133C40.906 76.8996 37.094 76.8996 34 75.1133L10.225 61.3868C7.131 59.6004 5.22501 56.2992 5.22501 52.7265V25.2735C5.22501 21.7008 7.131 18.3996 10.225 16.6132L34 2.88675Z" stroke="#D50066" stroke-width="3"/>
</svg>
