<svg width="78" height="78" viewBox="0 0 78 78" fill="none" xmlns="http://www.w3.org/2000/svg">
<path d="M39 43.25C41.3472 43.25 43.25 41.3472 43.25 39C43.25 36.6528 41.3472 34.75 39 34.75C36.6528 34.75 34.75 36.6528 34.75 39C34.75 41.3472 36.6528 43.25 39 43.25Z" stroke="#D50066" stroke-width="2" stroke-miterlimit="10" stroke-linecap="round" stroke-linejoin="round"/>
<path d="M24.8333 40.2466V37.7533C24.8333 36.28 26.0374 35.0616 27.5249 35.0616C30.0891 35.0616 31.1374 33.2483 29.8483 31.0241C29.1116 29.7491 29.5508 28.0916 30.8399 27.355L33.2908 25.9525C34.4099 25.2866 35.8549 25.6833 36.5208 26.8025L36.6766 27.0716C37.9516 29.2958 40.0483 29.2958 41.3374 27.0716L41.4933 26.8025C42.1591 25.6833 43.6041 25.2866 44.7233 25.9525L47.1741 27.355C48.4633 28.0916 48.9024 29.7491 48.1658 31.0241C46.8766 33.2483 47.9249 35.0616 50.4891 35.0616C51.9624 35.0616 53.1808 36.2658 53.1808 37.7533V40.2466C53.1808 41.72 51.9766 42.9383 50.4891 42.9383C47.9249 42.9383 46.8766 44.7516 48.1658 46.9758C48.9024 48.265 48.4633 49.9083 47.1741 50.645L44.7233 52.0475C43.6041 52.7133 42.1591 52.3166 41.4933 51.1975L41.3374 50.9283C40.0624 48.7041 37.9658 48.7041 36.6766 50.9283L36.5208 51.1975C35.8549 52.3166 34.4099 52.7133 33.2908 52.0475L30.8399 50.645C29.5508 49.9083 29.1116 48.2508 29.8483 46.9758C31.1374 44.7516 30.0891 42.9383 27.5249 42.9383C26.0374 42.9383 24.8333 41.72 24.8333 40.2466Z" stroke="#D50066" stroke-width="2" stroke-miterlimit="10" stroke-linecap="round" stroke-linejoin="round"/>
<path d="M34 2.88675C37.094 1.10042 40.906 1.10042 44 2.88675L67.775 16.6132C70.869 18.3996 72.775 21.7008 72.775 25.2735V52.7265C72.775 56.2992 70.869 59.6004 67.775 61.3868L44 75.1133C40.906 76.8996 37.094 76.8996 34 75.1133L10.225 61.3868C7.131 59.6004 5.22501 56.2992 5.22501 52.7265V25.2735C5.22501 21.7008 7.131 18.3996 10.225 16.6132L34 2.88675Z" stroke="#D50066" stroke-width="3"/>
</svg>
