<svg width="78" height="78" viewBox="0 0 78 78" fill="none" xmlns="http://www.w3.org/2000/svg">
<path d="M39.5859 33.0601H47.8984" stroke="#D50066" stroke-width="2" stroke-linecap="round" stroke-linejoin="round"/>
<path d="M30.1016 33.0601L31.2891 34.2476L34.8516 30.6851" stroke="#D50066" stroke-width="2" stroke-linecap="round" stroke-linejoin="round"/>
<path d="M39.5859 44.1433H47.8984" stroke="#D50066" stroke-width="2" stroke-linecap="round" stroke-linejoin="round"/>
<path d="M30.1016 44.1433L31.2891 45.3308L34.8516 41.7683" stroke="#D50066" stroke-width="2" stroke-linecap="round" stroke-linejoin="round"/>
<path d="M34.2501 53.8333H43.7501C51.6667 53.8333 54.8334 50.6666 54.8334 42.75V33.25C54.8334 25.3333 51.6667 22.1666 43.7501 22.1666H34.2501C26.3334 22.1666 23.1667 25.3333 23.1667 33.25V42.75C23.1667 50.6666 26.3334 53.8333 34.2501 53.8333Z" stroke="#D50066" stroke-width="2" stroke-linecap="round" stroke-linejoin="round"/>
<path d="M34 2.88675C37.094 1.10042 40.906 1.10042 44 2.88675L67.775 16.6132C70.869 18.3996 72.775 21.7008 72.775 25.2735V52.7265C72.775 56.2992 70.869 59.6004 67.775 61.3868L44 75.1133C40.906 76.8996 37.094 76.8996 34 75.1133L10.225 61.3868C7.131 59.6004 5.22501 56.2992 5.22501 52.7265V25.2735C5.22501 21.7008 7.131 18.3996 10.225 16.6132L34 2.88675Z" stroke="#D50066" stroke-width="3"/>
</svg>
