<svg width="85" height="35" viewBox="0 0 85 35" fill="none" xmlns="http://www.w3.org/2000/svg">
<rect x="1.5" y="1.5" width="82" height="32" stroke="black" stroke-width="3"/>
<path d="M9.71997 6.96094H12.5505L19.7708 24.9282L26.9758 6.96094H29.8215L20.8606 29H18.6506L9.71997 6.96094ZM8.79663 6.96094H11.2942L11.7029 20.4023V29H8.79663V6.96094ZM28.2322 6.96094H30.7297V29H27.8235V20.4023L28.2322 6.96094ZM38.7825 6.96094V29H35.8611V6.96094H38.7825ZM52.0876 6.96094L42.9299 17.2388L37.7834 22.582L37.2991 19.4639L41.1741 15.1953L48.5759 6.96094H52.0876ZM49.2722 29L41.1135 18.2529L42.8542 15.937L52.7537 29H49.2722Z" fill="black"/>
<rect x="54.5872" y="25.667" width="21.055" height="3.11111" fill="black"/>
</svg>
