<svg width="78" height="78" viewBox="0 0 78 78" fill="none" xmlns="http://www.w3.org/2000/svg">
<path d="M44.8334 39C44.8334 37.6193 45.9527 36.5 47.3334 36.5C48.7141 36.5 49.8334 37.6193 49.8334 39C49.8334 40.3807 48.7141 41.5 47.3334 41.5C45.9527 41.5 44.8334 40.3807 44.8334 39Z" fill="#D50066"/>
<path fill-rule="evenodd" clip-rule="evenodd" d="M53.0689 30.1234C51.9727 27.5473 49.5504 25.6954 46.6678 25.3921L45.5814 25.2777C40.0942 24.7003 34.5596 24.7384 29.0809 25.3913L28.361 25.4771C25.5797 25.8085 23.3759 27.9815 23.0055 30.7579C22.2755 36.2284 22.2755 41.7717 23.0055 47.2422C23.3759 50.0186 25.5797 52.1916 28.361 52.523L29.0809 52.6088C34.5596 53.2617 40.0942 53.2998 45.5814 52.7223L46.6678 52.608C49.5504 52.3047 51.9727 50.4528 53.0689 47.8767C54.8011 47.361 56.123 45.8594 56.34 44.004C56.7289 40.6794 56.7289 37.3207 56.34 33.9961C56.123 32.1407 54.8011 30.6391 53.0689 30.1234ZM45.3198 27.764C40.018 27.2061 34.6704 27.2429 29.3767 27.8737L28.6568 27.9595C27.0088 28.1559 25.703 29.4435 25.4835 31.0886C24.7828 36.3396 24.7828 41.6605 25.4835 46.9115C25.703 48.5566 27.0088 49.8442 28.6568 50.0406L29.3767 50.1264C34.6704 50.7572 40.018 50.794 45.3198 50.2361L46.4062 50.1217C47.8238 49.9726 49.0781 49.2738 49.9473 48.2366C47.4337 48.3832 44.8867 48.3177 42.403 48.0401C40.2874 47.8037 38.5764 46.1378 38.3268 44.004C37.938 40.6794 37.938 37.3207 38.3268 33.9961C38.5764 31.8623 40.2874 30.1964 42.403 29.96C44.8867 29.6824 47.4337 29.6169 49.9473 29.7635C49.0781 28.7263 47.8238 28.0275 46.4062 27.8783L45.3198 27.764ZM51.129 32.3579C51.13 32.3643 51.1311 32.3707 51.132 32.3771L51.1421 32.4419L51.4732 32.3905C51.6445 32.4074 51.8155 32.4254 51.9862 32.4445C52.9652 32.5539 53.7448 33.3275 53.857 34.2865C54.2232 37.4182 54.2232 40.5819 53.857 43.7136C53.7448 44.6726 52.9652 45.4462 51.9862 45.5556C51.8155 45.5747 51.6445 45.5927 51.4732 45.6096L51.1421 45.5582L51.132 45.623C51.1311 45.6294 51.13 45.6358 51.129 45.6422C48.3313 45.8953 45.4621 45.8664 42.6807 45.5556C41.7017 45.4462 40.9221 44.6726 40.8099 43.7136C40.4436 40.5819 40.4436 37.4182 40.8099 34.2865C40.9221 33.3275 41.7017 32.5539 42.6807 32.4445C45.4621 32.1336 48.3313 32.1048 51.129 32.3579Z" fill="#D50066"/>
<path d="M34 2.88675C37.094 1.10042 40.906 1.10042 44 2.88675L67.775 16.6132C70.869 18.3996 72.775 21.7008 72.775 25.2735V52.7265C72.775 56.2992 70.869 59.6004 67.775 61.3868L44 75.1133C40.906 76.8996 37.094 76.8996 34 75.1133L10.225 61.3868C7.131 59.6004 5.22501 56.2992 5.22501 52.7265V25.2735C5.22501 21.7008 7.131 18.3996 10.225 16.6132L34 2.88675Z" stroke="#D50066" stroke-width="3"/>
</svg>
